<svg width="68" height="68" viewBox="0 0 68 68" fill="none" xmlns="http://www.w3.org/2000/svg">
<path d="M0.38234 67.82C0.0561077 67.5367 0.117131 67.2099 0.95922 64.7302C1.39188 63.4562 1.74588 62.3197 1.74588 62.2046C1.74588 62.0896 1.51669 61.8779 1.23658 61.7342C0.623065 61.4194 -0.00309318 60.3605 1.14981e-05 59.6429C0.00123519 59.3562 0.151303 58.7117 0.333462 58.2107C0.589552 57.5064 5.41837 44.1647 5.86904 42.9163C5.95733 42.6717 5.76497 42.6506 3.44548 42.6506C1.22667 42.6506 0.891483 42.6175 0.636695 42.373C0.311162 42.0606 0.274559 41.7715 0.518091 41.4362C0.650508 41.2538 1.26736 41.1933 3.61458 41.1326L6.54573 41.0567L8.17799 36.5784C9.07574 34.1153 10.5918 29.9679 11.5471 27.3618L13.284 22.6234L12.753 21.8967C11.5315 20.2249 11.169 17.602 11.8824 15.5963C12.5624 13.6845 14.3303 11.8748 16.3615 11.0111L17.3042 10.6102V6.2824C17.3042 2.25536 17.3285 1.91324 17.6536 1.35994C18.5705 -0.200801 21.5399 -0.484426 22.9353 0.855472C23.7025 1.5922 23.7723 2.05785 23.7723 6.43697V10.6134L24.5092 10.9399C27.6188 12.3175 29.5411 14.9789 29.5411 17.9063C29.5411 19.2015 29.1568 20.453 28.3715 21.7157L27.7406 22.7299L28.3601 24.4548C28.7008 25.4035 30.1391 29.3221 31.5562 33.1628C32.9733 37.0034 34.2141 40.3678 34.3136 40.6392L34.4945 41.1326H37.3456C40.1938 41.1326 40.1969 41.1329 40.483 41.5121C40.7482 41.8636 40.7482 41.9195 40.483 42.2711C40.1993 42.6471 40.1732 42.6506 37.6541 42.6506C35.3153 42.6506 35.1187 42.6719 35.2004 42.9163C35.2493 43.0624 35.5432 43.9163 35.8537 44.8139L36.4181 46.4458H37.3555C39.6609 46.4458 41.2885 47.8884 41.2885 49.9319C41.2885 51.2126 40.595 52.2087 39.1178 53.0493C38.8867 53.1809 38.9986 53.6064 39.9561 56.2372C40.5638 57.9071 41.0633 59.4441 41.0661 59.6529C41.0741 60.2597 40.4768 61.231 39.7961 61.7183L39.1675 62.1682L40.0551 64.7067C40.9031 67.1322 40.9299 67.262 40.657 67.6237C40.3423 68.0407 39.6702 68.1298 39.3518 67.7966C39.2437 67.6835 38.838 66.6418 38.4501 65.4816C37.3856 62.2972 37.4509 62.4315 36.9202 62.3332C36.1651 62.1933 35.3514 61.6809 35.0317 61.1441C34.8694 60.8715 34.1926 59.1094 33.5276 57.2284C31.6435 51.8983 28.4631 43.2106 28.2882 42.9163C28.1462 42.6774 27.7958 42.6506 24.815 42.6506H21.4997V44.1588C21.4997 44.9883 21.4238 45.8403 21.3311 46.0521C21.1074 46.5631 20.3776 46.7245 19.9194 46.3643C19.6174 46.127 19.5768 45.8905 19.5768 44.3697V42.6442L16.1381 42.6854L12.6995 42.7265L11.329 46.5217C10.5753 48.609 9.12516 52.6394 8.10658 55.4782C7.08801 58.317 6.15229 60.8104 6.02721 61.0191C5.68533 61.5896 5.04449 62.052 4.27479 62.2834L3.58521 62.4907L2.73533 65.0567C2.26791 66.468 1.80509 67.7081 1.70686 67.8124C1.4796 68.0539 0.657067 68.0586 0.38234 67.82ZM3.911 60.6958C4.4305 60.4903 4.39749 60.5622 5.85329 56.465C6.49112 54.6698 9.29618 46.9169 12.0868 39.2361C16.6969 26.5473 17.1328 25.2572 16.8573 25.1182C16.6905 25.0341 16.1612 24.7414 15.681 24.4678C15.2008 24.1943 14.7781 23.9963 14.7417 24.0279C14.6409 24.1154 10.4196 35.6558 5.68079 48.7988C5.13891 50.3016 4.02671 53.359 3.20924 55.5929C2.31164 58.0458 1.76619 59.7729 1.83214 59.9534C1.97135 60.3342 2.74568 60.8673 3.15973 60.8673C3.33454 60.8673 3.6726 60.7901 3.911 60.6958ZM38.4441 60.6452C39.4116 60.2107 39.4007 60.0848 38.071 56.3513L36.9763 53.2775L36.4104 53.1853C33.569 52.7224 32.3591 49.2211 34.4547 47.5258L34.8229 47.2279L34.4667 46.2676C34.2708 45.7394 33.205 42.848 32.0982 39.8422C28.677 30.5506 26.3932 24.3669 26.3063 24.1599C26.2465 24.0172 26.0064 24.0913 25.448 24.425C25.0217 24.6797 24.4717 24.9545 24.2259 25.0357C23.9801 25.1168 23.8118 25.2708 23.8519 25.3779C24.4393 26.9442 27.0493 34.0765 28.1451 37.1097C28.9294 39.2805 30.4605 43.4818 31.5476 46.4458C33.5815 51.9912 36.0822 58.9814 36.2723 59.6529C36.4051 60.1217 36.6885 60.4564 37.1455 60.684C37.6124 60.9165 37.8562 60.9092 38.4441 60.6452ZM38.2982 51.5239C38.9529 51.2299 39.5039 50.4636 39.5048 49.8459C39.5048 49.2843 38.8784 48.4225 38.2765 48.158C37.2262 47.6965 35.8384 48.1623 35.3713 49.1331C34.9164 50.0785 35.3803 51.1464 36.4157 51.5375C37.1472 51.8138 37.6609 51.8101 38.2982 51.5239ZM36.6335 50.4578C36.0501 49.9512 36.5229 49.0265 37.3652 49.0265C38.1258 49.0265 38.6104 50.0466 38.072 50.5142C37.775 50.7721 36.9586 50.7401 36.6335 50.4578ZM19.5768 39.3144C19.5768 37.5911 19.5975 37.4844 19.974 37.2702C20.4875 36.978 21.0557 37.1126 21.3036 37.5851C21.4115 37.7907 21.4997 38.673 21.4997 39.5457V41.1326H24.5589C26.2415 41.1326 27.6182 41.0783 27.6182 41.012C27.6182 40.9457 26.3704 37.4788 24.8453 33.3078L22.0724 25.7243L20.4867 25.6808L18.901 25.6372L18.2615 27.4265C17.9099 28.4106 16.6853 31.7953 15.5402 34.9479C14.3952 38.1006 13.4583 40.7818 13.4583 40.9063C13.4583 41.0982 13.9235 41.1326 16.5176 41.1326H19.5768V39.3144ZM23.4292 23.6321C26.3699 22.4044 28.1443 19.6284 27.6487 17.0309C27.087 14.0877 24.3911 11.9254 21.0339 11.7256C18.7882 11.5919 17.1596 12.1113 15.5043 13.4891C14.4435 14.3721 13.8821 15.2018 13.5235 16.4163C12.608 19.5176 14.6468 22.7484 18.2157 23.8517C19.613 24.2837 22.1215 24.178 23.4292 23.6321ZM21.8493 6.18905C21.8493 2.31664 21.8395 2.20486 21.4692 1.86259C20.9485 1.3812 20.0492 1.39082 19.4814 1.88386L19.0523 2.25647V6.21032V10.1642H20.4508H21.8493V6.18905ZM48.5897 64.1691C47.5442 63.7108 47.0291 62.9112 47.0253 61.7402L47.0225 60.8673H44.6724C42.4421 60.8673 42.3085 60.8501 42.0502 60.5299C41.807 60.2285 41.7781 57.9245 41.7781 38.8876C41.7781 24.4919 41.8368 17.4875 41.959 17.2891C42.1335 17.006 42.4007 16.9954 49.3536 16.9954C54.7311 16.9954 56.6207 17.0418 56.777 17.1776C56.9378 17.3172 56.9868 21.4686 56.9868 34.9389V52.518L61.226 52.5213C65.8291 52.525 66.3582 52.6063 67.2454 53.4468C67.9395 54.1043 68 54.5196 68 58.6247C68 62.5706 67.9982 62.589 67.5654 63.2303C67.2757 63.6597 66.8787 63.9803 66.374 64.1925C65.6388 64.5015 65.3839 64.5107 57.4931 64.5107C49.4157 64.5107 49.3646 64.5087 48.5897 64.1691ZM65.7536 62.5925C66.0519 62.358 66.077 62.0421 66.077 58.5143C66.077 55.0174 66.0499 54.6691 65.7607 54.4418C65.4777 54.2194 64.5972 54.1922 57.4133 54.1842C49.3984 54.1753 49.3817 54.176 49.0764 54.502C48.8041 54.7929 48.7705 55.2276 48.7705 58.4652C48.7705 62.2486 48.8284 62.5855 49.5249 62.8526C49.7615 62.9433 52.8607 62.97 57.6685 62.9228C64.6036 62.8547 65.4646 62.8195 65.7536 62.5925ZM47.0224 56.7686C47.1212 53.9375 47.2574 53.5524 48.373 52.9501C48.9892 52.6174 49.2376 52.5906 52.1357 52.5437L55.2386 52.4934V35.5035V18.5135H49.4698H43.7009V21.9291V25.3448H44.9053C46.4293 25.3448 47.0293 25.6699 46.7551 26.347C46.5541 26.8432 46.1307 26.978 44.7061 26.9995L43.7009 27.0146V28.305V29.5953H44.9246C45.9152 29.5953 46.2149 29.6532 46.4979 29.8989C46.9107 30.2574 46.9358 30.4951 46.6026 30.8909C46.4075 31.1226 46.0869 31.1937 45.0293 31.2401L43.7009 31.2984V32.5721V33.8459H44.9053C46.3789 33.8459 46.9726 34.1517 46.7816 34.8124C46.6328 35.3274 46.0856 35.5158 44.7384 35.5158H43.7009V36.7862V38.0567L44.3565 38.1508C44.717 38.2026 45.3306 38.2457 45.72 38.2466C46.5185 38.2485 46.8476 38.4547 46.8476 38.9531C46.8476 39.5043 46.2154 39.7663 44.8857 39.7663H43.7009V41.0567V42.347H44.8857C46.3054 42.347 46.8963 42.6179 46.8139 43.2311C46.741 43.7727 46.1243 44.0119 44.7935 44.0146L43.7009 44.0169V45.3072V46.5976H44.8857C46.2324 46.5976 46.8476 46.8594 46.8476 47.4325C46.8476 48.0056 46.2324 48.2674 44.8857 48.2674H43.7009V49.5578V50.8481H44.9246C45.9152 50.8481 46.2149 50.906 46.4979 51.1517C46.9066 51.5066 46.9357 51.7481 46.6158 52.128C46.3943 52.391 46.1939 52.4216 44.1817 52.4994L43.7009 52.518V53.8083V55.0987L44.8809 55.101C46.1649 55.1036 46.3449 55.1602 46.646 55.657C47.0926 56.3938 46.4867 56.7686 44.8487 56.7686H43.7009V58.0646V59.3607L45.318 59.317L46.935 59.2734L47.0224 56.7686ZM48.9975 24.2883C47.415 23.4503 47.6066 21.4786 49.3424 20.7395C50.5396 20.2298 52.0327 20.7225 52.5502 21.7979C52.8733 22.4694 52.8538 22.8951 52.4718 23.5137C51.8537 24.5145 50.1445 24.8956 48.9975 24.2883ZM50.8418 22.6982C50.9271 22.3101 50.3743 21.9459 50.0522 22.178C49.8017 22.3585 49.7415 22.7977 49.9433 22.9729C50.1767 23.1756 50.7772 22.992 50.8418 22.6982Z" fill="#2E2E2E"/>
<path d="M20.5516 20.793C22.5365 20.793 24.1456 19.4089 24.1456 17.7014C24.1456 15.994 22.5365 14.6099 20.5516 14.6099C18.5666 14.6099 16.9575 15.994 16.9575 17.7014C16.9575 19.4089 18.5666 20.793 20.5516 20.793Z" fill="#F97316"/>
<path d="M62.0614 54.1978H61.8706V62.8739H62.0614V54.1978Z" fill="#F97316"/>
<path d="M62.0605 57.8651V54.2014L62.5713 54.2077C64.3747 54.2301 65.1256 54.2638 65.4803 54.3382C65.7319 54.3909 65.8621 54.498 65.9329 54.7102C66.0454 55.0473 66.07 55.7323 66.0699 58.5306C66.0699 60.0538 66.0594 61.1365 66.0419 61.4125L66.0346 61.5287H64.0476H62.0605V57.8651Z" fill="#F97316"/>
<path d="M62.0645 62.1998V61.5356H64.0516H66.0387L66.0288 61.6598C65.9826 62.2316 65.9343 62.4096 65.7875 62.5479C65.6026 62.722 65.196 62.7788 63.8105 62.8237C63.4095 62.8367 62.2728 62.864 62.1302 62.864L62.0645 62.864L62.0645 62.1998Z" fill="#F97316"/>
<path d="M62.0659 62.0652V61.5356H63.2425H64.4191V62.0652V62.5947H63.2425H62.0659V62.0652Z" fill="#F97316"/>
<path d="M62.0615 61.3099V61.0911H63.2401H64.4188V61.3099V61.5287H63.2401H62.0615V61.3099Z" fill="#F97316"/>
<path d="M62.0613 61.843V61.0911H63.2399H64.4186V61.3134V61.5358H63.2413H62.064V62.0653C62.064 62.4176 62.064 62.5949 62.0623 62.5949C62.0605 62.5949 62.0605 62.3435 62.0605 61.843H62.0613Z" fill="#F97316"/>
<path d="M62.0657 62.0651V61.5352L62.0639 62.0415C62.0639 62.32 62.0622 62.5489 62.0622 62.5503C62.0622 62.5517 62.0622 62.2239 62.0622 61.8219L62.062 61.0911H63.2406H64.4193V61.843V62.5949H63.2427H62.0661L62.0657 62.0651Z" fill="#F97316"/>
<path d="M62.0658 62.0859C62.0658 61.806 62.0658 61.5775 62.0658 61.5775C62.0658 61.5778 62.0658 61.7394 62.064 61.9367C62.064 62.134 62.064 62.3533 62.0623 62.4241C62.0623 62.4949 62.0623 62.2239 62.0605 61.8219V61.0911H63.2392H64.4178V61.843V62.5949H63.2412H62.0646L62.0658 62.0859Z" fill="#F97316"/>
<path d="M62.0649 62.6432V62.4221H62.4247H62.7844V62.6363V62.8504L62.762 62.851C62.6844 62.8529 62.4549 62.858 62.3407 62.8603C62.2433 62.8623 62.1873 62.8632 62.1236 62.8638L62.0649 62.8644V62.6432Z" fill="#F97316"/>
<path d="M62.065 62.6432V62.4221H62.4247H62.7844V62.6364V62.8506H62.7789C62.7759 62.8506 62.742 62.8514 62.7038 62.8523C62.4563 62.8582 62.2291 62.8627 62.1236 62.8637L62.0649 62.8644L62.065 62.6432Z" fill="#F97316"/>
<path d="M62.0649 62.6432V62.4221H62.4247H62.7844V62.6363V62.8504L62.7634 62.851C62.7335 62.8518 62.5367 62.8562 62.443 62.8582C62.2673 62.8619 62.2049 62.863 62.1241 62.8638L62.0649 62.8644V62.6432Z" fill="#F97316"/>
<path d="M62.0612 62.7281C62.0613 62.65 62.0612 62.5881 62.0612 62.5907V62.5953V62.5911C62.0612 62.5888 62.0612 62.6494 62.0612 62.7259L62.0614 62.8648L62.1128 62.8644C62.2301 62.8635 62.4519 62.8591 62.7584 62.8517L62.7818 62.8511V62.8537C62.7818 62.8563 62.7818 62.8563 62.7759 62.8568C62.7726 62.8571 62.7279 62.858 62.6766 62.8589C62.6254 62.8599 62.5439 62.8614 62.4956 62.8623C62.3892 62.8643 62.2888 62.8661 62.1899 62.8677C62.1493 62.8683 62.1031 62.8693 62.0873 62.8695L62.0586 62.8701L62.0612 62.7281Z" fill="#F97316"/>
<path d="M62.0617 62.7964C62.0617 62.6722 62.0617 62.5861 62.0617 62.5908V62.5954V62.5912C62.0617 62.5889 62.0617 62.6493 62.0617 62.7256C62.0618 62.8175 62.0617 62.8642 62.0617 62.8642C62.0617 62.8642 62.0601 62.8409 62.0601 62.7964H62.0617Z" fill="#F97316"/>
<path d="M62.0618 62.7947C62.0618 62.6661 62.0618 62.586 62.0618 62.5907V62.5953V62.5911C62.0618 62.5888 62.0618 62.6493 62.0618 62.7255C62.0619 62.8174 62.0618 62.8641 62.0618 62.8641C62.0618 62.8641 62.0601 62.8403 62.0601 62.7947H62.0618ZM62.065 62.6431V62.4221H62.4247H62.7844V62.6363V62.8504L62.7629 62.851C62.6792 62.8532 62.466 62.8579 62.3431 62.8603C62.3083 62.8611 62.2694 62.8618 62.2567 62.862C62.218 62.8628 62.1163 62.8641 62.0898 62.8641L62.065 62.8641V62.6431Z" fill="#F97316"/>
<path d="M62.065 62.6431V62.4221H62.4247H62.7845V62.6364V62.8506L62.7764 62.8507C62.772 62.8507 62.7638 62.8508 62.7583 62.8511C62.7464 62.8516 62.5201 62.8567 62.3861 62.8595C62.3738 62.8598 62.356 62.8601 62.3465 62.8604C62.2804 62.8619 62.1568 62.8638 62.1038 62.864L62.0649 62.8641L62.065 62.6431Z" fill="#F97316"/>
<path d="M62.0617 62.7948C62.0617 62.6662 62.0617 62.5861 62.0617 62.5908V62.5954V62.5912C62.0617 62.5889 62.0617 62.6494 62.0617 62.7256C62.0618 62.8175 62.0617 62.8642 62.0617 62.8642C62.0617 62.8642 62.0601 62.8404 62.0601 62.7948H62.0617Z" fill="#F97316"/>
<path d="M62.0617 62.7948C62.0617 62.6662 62.0617 62.5861 62.0617 62.5908V62.5954V62.5912C62.0617 62.5889 62.0617 62.6494 62.0617 62.7256C62.0618 62.8175 62.0617 62.8642 62.0617 62.8642C62.0617 62.8642 62.0601 62.8404 62.0601 62.7948H62.0617Z" fill="#F97316"/>
<path d="M61.8711 62.6477V62.4221H61.9657H62.0603L62.0603 62.5972C62.0604 62.7507 62.0603 62.794 62.0621 62.7952C62.0622 62.7953 62.0621 62.7484 62.0622 62.6908C62.0621 62.6332 62.0622 62.5881 62.0622 62.5907V62.5953V62.5911C62.0622 62.5888 62.0622 62.639 62.0639 62.7026C62.0639 62.8075 62.0639 62.7997 62.0639 62.6202V62.4221H62.4236H62.7834V62.6364V62.8507H62.7797C62.7766 62.8507 62.7146 62.8522 62.6573 62.8536C62.6277 62.8543 62.4955 62.8572 62.4265 62.8586C62.3925 62.8593 62.358 62.8601 62.3497 62.8603C62.3415 62.8606 62.3182 62.8609 62.2981 62.8612C62.2779 62.8615 62.2612 62.8618 62.261 62.8621C62.261 62.8627 62.2892 62.8624 62.3314 62.8615C62.519 62.8576 62.7444 62.8526 62.7662 62.8518L62.7804 62.8512V62.8533C62.7804 62.8561 62.7804 62.8562 62.7557 62.8568C62.7028 62.8582 62.3264 62.865 62.1584 62.8677C62.1146 62.8685 62.0743 62.8692 62.0689 62.8695C62.06 62.8699 62.0589 62.8701 62.0589 62.8716C62.0589 62.8731 62.0566 62.8732 61.9642 62.8732H61.8696L61.8711 62.6477ZM62.105 62.8643L62.0651 62.864V62.8411C62.065 62.8547 62.0651 62.864 62.0634 62.864C62.0634 62.864 62.0616 62.8613 62.0616 62.8579V62.8518V62.8583V62.8648L62.1034 62.8647L62.1452 62.8645L62.105 62.8643ZM62.1934 62.8634C62.185 62.8632 62.1712 62.8632 62.1625 62.8634C62.1538 62.8635 62.1606 62.8637 62.1777 62.8637C62.1947 62.8637 62.2018 62.8636 62.1934 62.8634ZM62.2479 62.8625C62.2409 62.8623 62.2294 62.8623 62.2223 62.8625C62.2153 62.8626 62.2206 62.8628 62.2351 62.8628C62.2492 62.8628 62.255 62.8626 62.2479 62.8625Z" fill="#F97316"/>
<path d="M62.2536 61.4824V60.0984H64.1588H66.0639V60.1998C66.0639 60.1277 66.0657 60.0984 66.0676 60.0984C66.0707 60.0984 66.07 60.197 66.0644 60.6226C66.0602 60.9326 66.0529 61.239 66.0455 61.4053C66.0437 61.4373 66.042 61.4848 66.0408 61.5109C66.039 61.5417 66.0382 61.5542 66.0371 61.5465C66.0354 61.5368 66.0354 61.5361 66.035 61.5429C66.0333 61.5675 66.0144 61.7909 66.0086 61.8489C65.986 62.0735 65.9613 62.2144 65.9263 62.3193C65.8758 62.4707 65.7822 62.5762 65.646 62.6355C65.374 62.754 64.8501 62.7978 63.213 62.8392C63.0845 62.8424 62.9348 62.8462 62.8801 62.8476C62.8044 62.8496 62.7799 62.8509 62.7771 62.8533C62.7729 62.857 62.6134 62.8606 62.4523 62.8606C62.3982 62.8606 62.3656 62.8612 62.3799 62.8621C62.3942 62.8628 62.3733 62.8633 62.3336 62.863C62.2938 62.8627 62.2637 62.8633 62.2667 62.8644C62.2707 62.8657 62.2695 62.8662 62.2618 62.8663L62.2515 62.8665L62.2536 61.4824ZM62.5138 62.8576C62.5059 62.8572 62.493 62.8572 62.4851 62.8576C62.4772 62.8581 62.4833 62.8585 62.4994 62.8585C62.5151 62.8585 62.5217 62.8581 62.5138 62.8576ZM62.6176 62.8552C62.6097 62.8548 62.5968 62.8548 62.5889 62.8552C62.581 62.8557 62.5871 62.8562 62.6032 62.8562C62.619 62.8562 62.6255 62.8557 62.6176 62.8552ZM62.7242 62.8529C62.7179 62.8524 62.7067 62.8524 62.6996 62.8529C62.6924 62.8533 62.6977 62.8538 62.7111 62.8538C62.7246 62.8538 62.7305 62.8533 62.7242 62.8529ZM66.0359 61.5127C66.0359 61.5091 66.0341 61.5115 66.0341 61.518C66.0341 61.5245 66.0341 61.5275 66.0359 61.5246C66.0359 61.5217 66.0359 61.5163 66.0359 61.5127ZM66.0387 61.4711C66.0387 61.4656 66.0369 61.4706 66.0369 61.4824C66.0369 61.4942 66.0369 61.4987 66.0387 61.4924C66.0387 61.4862 66.0387 61.4766 66.0387 61.4711ZM66.0415 61.4284C66.0415 61.4229 66.0397 61.4279 66.0397 61.4397C66.0397 61.4515 66.0397 61.456 66.0415 61.4498C66.0415 61.4435 66.0415 61.4339 66.0415 61.4284ZM66.0443 61.3799C66.0443 61.3724 66.0425 61.3779 66.0425 61.3923C66.0425 61.4067 66.0425 61.4128 66.0443 61.406C66.0443 61.3992 66.0443 61.3875 66.0443 61.3799ZM66.0471 61.3171C66.0471 61.3076 66.0453 61.3147 66.0453 61.333C66.0453 61.3513 66.0453 61.3591 66.0471 61.3503C66.0471 61.3416 66.0471 61.3266 66.0471 61.3171ZM66.0499 61.2362C66.0499 61.2255 66.0481 61.2349 66.0481 61.2571C66.0481 61.2793 66.0481 61.288 66.0499 61.2766C66.0499 61.2651 66.0499 61.2469 66.0499 61.2362ZM66.0527 61.1355C66.0527 61.1215 66.0509 61.133 66.0509 61.161C66.0509 61.1891 66.0509 61.2006 66.0527 61.1865C66.0527 61.1725 66.0527 61.1496 66.0527 61.1355ZM66.0555 61.0075C66.0555 60.9895 66.0555 61.0042 66.0555 61.0401C66.0555 61.0759 66.0555 61.0906 66.0555 61.0727C66.0555 61.0547 66.0555 61.0254 66.0555 61.0075ZM66.0583 60.8509C66.0583 60.8291 66.0583 60.8469 66.0583 60.8906C66.0583 60.9343 66.0583 60.9522 66.0583 60.9304C66.0583 60.9085 66.0583 60.8728 66.0583 60.8509ZM66.061 60.6422C66.061 60.6125 66.061 60.6368 66.061 60.6961C66.061 60.7555 66.061 60.7798 66.061 60.7501C66.061 60.7204 66.061 60.6718 66.061 60.6422ZM66.0638 60.3813C66.0638 60.3451 66.0638 60.3747 66.0638 60.4471C66.0638 60.5195 66.0638 60.5491 66.0638 60.5129C66.0638 60.4767 66.0638 60.4175 66.0638 60.3813Z" fill="#F97316"/>
<path d="M64.8834 62.7726C65.0434 62.7598 65.1627 62.7473 65.2658 62.7324C65.5356 62.6934 65.6904 62.6392 65.7855 62.5505C65.8698 62.4718 65.9181 62.3825 65.9533 62.2398C65.9807 62.1284 66.0029 61.9685 66.0227 61.7374L66.0248 61.7123L66.0285 61.712L66.0322 61.7117V61.7195C66.0322 61.7238 66.0304 61.7418 66.0292 61.7596C66.0059 62.0727 65.9695 62.27 65.9119 62.3953C65.8768 62.4716 65.8332 62.5273 65.7659 62.582C65.7413 62.6019 65.7272 62.6118 65.7048 62.6248C65.5841 62.6947 65.3737 62.7375 64.9869 62.7709L64.9383 62.7752L64.8962 62.7751L64.854 62.775L64.8834 62.7726Z" fill="#F97316"/>
<path d="M65.9846 54.9277C65.966 54.8141 65.9419 54.7231 65.9114 54.652C65.8528 54.5154 65.7613 54.4297 65.6166 54.3761C65.5731 54.36 65.5215 54.3458 65.4657 54.3347L65.4604 54.3337V54.3309V54.3281L65.4706 54.3301C65.6002 54.356 65.6899 54.3895 65.7511 54.435C65.7917 54.4652 65.8275 54.5001 65.8549 54.5364C65.9191 54.6211 65.9602 54.7394 65.99 54.9245C65.9921 54.9374 65.9939 54.9488 65.9941 54.9499C65.9941 54.9518 65.9941 54.9518 65.9914 54.9518H65.9885L65.9846 54.9277Z" fill="#F97316"/>
<path d="M66.0234 55.2829C66.0234 55.282 66.0208 55.2464 66.0192 55.2286C66.0127 55.1468 66.0052 55.0742 65.997 55.0109C65.994 54.9889 65.9893 54.9551 65.9888 54.9533C65.9888 54.9521 65.9886 54.9519 65.9916 54.9519C65.9937 54.9519 65.9947 54.9522 65.9947 54.9527C65.9947 54.9531 65.9947 54.9573 65.9965 54.962C66.007 55.0298 66.0198 55.151 66.0275 55.2534C66.0293 55.2658 66.0295 55.2777 66.0296 55.2797V55.2834H66.0266C66.0249 55.2834 66.0237 55.2829 66.0237 55.2829L66.0234 55.2829Z" fill="#F97316"/>
<path d="M66.0417 55.6359C66.0417 55.6339 66.0417 55.627 66.0417 55.6206C66.04 55.581 66.0358 55.4848 66.0325 55.4237C66.0297 55.3726 66.025 55.2993 66.0239 55.2875V55.2832H66.0269H66.0299V55.2884C66.0346 55.3442 66.044 55.518 66.0485 55.6279V55.6396H66.0453H66.0422L66.0417 55.6359Z" fill="#F97316"/>
<path d="M65.5186 55.4533V55.0774H65.7613H66.004V55.0793C66.004 55.0822 66.0094 55.1305 66.0122 55.1601C66.0162 55.2035 66.0236 55.2951 66.0236 55.303C66.0236 55.3011 66.0236 55.2958 66.0238 55.2913V55.2832H66.0266H66.0294V55.2916C66.0294 55.2963 66.0311 55.3064 66.0311 55.314C66.0357 55.3731 66.0479 55.6075 66.0479 55.6332V55.6396H66.0453C66.0436 55.6396 66.0425 55.6393 66.0422 55.6386C66.0422 55.6382 66.0422 55.6334 66.0422 55.6281C66.0422 55.6113 66.035 55.4582 66.0313 55.3947C66.0276 55.3323 66.0276 55.3318 66.0269 55.3369C66.0269 55.3401 66.0269 55.3507 66.0287 55.3704C66.0348 55.4722 66.0399 55.5822 66.0448 55.7182C66.0465 55.7536 66.0481 55.8212 66.0481 55.8253V55.8294H65.7835H65.5189L65.5186 55.4533ZM66.0262 55.3239C66.0262 55.3167 66.0262 55.3086 66.0262 55.306L66.0263 55.3013V55.3051C66.0263 55.3088 66.0263 55.3371 66.028 55.3371C66.028 55.3371 66.0281 55.3312 66.028 55.3239L66.0262 55.3239Z" fill="#F97316"/>
<path d="M65.5186 55.4533V55.0774H65.7613H66.004V55.0793C66.004 55.0822 66.0094 55.1305 66.0122 55.1601C66.015 55.1901 66.0185 55.234 66.0215 55.2713C66.0232 55.2903 66.0234 55.2953 66.0236 55.2901L66.0237 55.2832H66.0266H66.0296V55.2916C66.0296 55.2963 66.0314 55.3063 66.0314 55.314C66.0363 55.3786 66.0453 55.5525 66.0488 55.6493C66.0488 55.6601 66.0506 55.6856 66.0509 55.706C66.0527 55.742 66.055 55.8244 66.055 55.8277C66.055 55.8292 66.0548 55.8293 66.0515 55.8293H66.0481V55.8197L66.0478 55.8293H65.7832H65.5186L65.5186 55.4533ZM66.0476 55.7894C66.0475 55.7861 66.0476 55.7888 66.0476 55.7955C66.0476 55.8022 66.0477 55.8049 66.0476 55.8016C66.0477 55.7982 66.0477 55.7928 66.0476 55.7894ZM66.0476 55.7669C66.0475 55.7639 66.0476 55.7662 66.0476 55.7721C66.0476 55.778 66.0477 55.7804 66.0476 55.7776C66.0477 55.7748 66.0477 55.77 66.0476 55.7669ZM66.0476 55.7455C66.0475 55.7428 66.0476 55.7452 66.0476 55.7507C66.0476 55.7563 66.0477 55.7585 66.0476 55.7556C66.0477 55.7527 66.0477 55.7482 66.0476 55.7455ZM66.0476 55.7284C66.0475 55.726 66.0476 55.7278 66.0476 55.7324C66.0476 55.7369 66.0477 55.7389 66.0476 55.7367C66.0477 55.7345 66.0477 55.7308 66.0476 55.7284ZM66.0476 55.7112C66.0475 55.7088 66.0476 55.7106 66.0476 55.7152C66.0476 55.7197 66.0477 55.7217 66.0476 55.7195C66.0477 55.7173 66.0477 55.7136 66.0476 55.7112ZM66.0476 55.6928C66.0475 55.6904 66.0476 55.6922 66.0476 55.6968C66.0476 55.7013 66.0477 55.7033 66.0476 55.7011C66.0477 55.6989 66.0477 55.6952 66.0476 55.6928ZM66.0476 55.6744C66.0475 55.672 66.0476 55.6739 66.0476 55.6787C66.0476 55.6834 66.0477 55.6853 66.0476 55.683C66.0477 55.6806 66.0477 55.6767 66.0476 55.6744ZM66.0476 55.6566C66.0475 55.6542 66.0476 55.656 66.0476 55.6606C66.0476 55.6652 66.0477 55.6671 66.0476 55.6649C66.0477 55.6627 66.0477 55.659 66.0476 55.6566ZM66.0476 55.6344C66.0476 55.6182 66.0459 55.5916 66.0459 55.591C66.0459 55.5909 66.0459 55.5909 66.0459 55.591C66.0457 55.5912 66.0459 55.6047 66.0459 55.621C66.0459 55.6374 66.0476 55.6507 66.0476 55.6506C66.0477 55.6505 66.0476 55.6432 66.0476 55.6344ZM66.0455 55.5813C66.0455 55.5501 66.0382 55.4151 66.0336 55.3436C66.0336 55.335 66.0319 55.3269 66.0319 55.3257C66.0319 55.3245 66.0319 55.3235 66.0319 55.3237C66.0319 55.324 66.032 55.3507 66.0336 55.3635C66.0354 55.3838 66.0404 55.4836 66.0436 55.5521C66.0453 55.5726 66.0453 55.5895 66.0453 55.5896C66.0453 55.5897 66.0455 55.5896 66.0453 55.5896C66.0453 55.5896 66.0453 55.5859 66.0453 55.5813L66.0455 55.5813Z" fill="#F97316"/>
<path d="M66.0603 56.3973C66.0601 56.3965 66.0603 56.369 66.0585 56.3361C66.0585 56.2789 66.0568 56.2515 66.0557 56.168C66.054 56.0987 66.0522 56.0025 66.051 55.9494C66.0489 55.869 66.0482 55.8454 66.0479 55.8378V55.8293H66.0512H66.0545V55.8396C66.0569 55.8975 66.0622 56.1407 66.0648 56.3052C66.0648 56.3421 66.0666 56.3782 66.0666 56.3854V56.3986H66.0632C66.0604 56.3986 66.0599 56.3985 66.0596 56.3973L66.0603 56.3973Z" fill="#F97316"/>
<path d="M66.0651 56.8282C66.0651 56.8035 66.0651 56.7513 66.0635 56.7121C66.0635 56.6489 66.0619 56.5454 66.0605 56.4356V56.3987H66.0635H66.0665V56.3962C66.0666 56.3948 66.0665 56.4006 66.0665 56.4091C66.0665 56.4176 66.0665 56.4463 66.0665 56.4728C66.0681 56.5387 66.0683 56.6329 66.0691 56.7246C66.0691 56.7666 66.0691 56.8173 66.0707 56.8371V56.8731H66.0676H66.0645L66.0651 56.8282Z" fill="#F97316"/>
<path d="M66.0688 60.2951C66.0688 60.2681 66.0688 60.1071 66.0689 60.1024C66.0689 60.0979 66.0671 60.0972 66.0666 60.1011C66.0666 60.1024 66.0666 60.0955 66.0664 60.0857C66.0664 60.0523 66.0681 59.8184 66.0682 59.7162C66.0682 59.6601 66.0682 59.6024 66.0682 59.588V59.5618H66.0712H66.0741V59.7007C66.0741 59.9138 66.0715 60.2669 66.0707 60.2969C66.0707 60.3131 66.0707 60.3137 66.069 60.3137C66.0674 60.3137 66.0674 60.3134 66.069 60.2951L66.0688 60.2951Z" fill="#F97316"/>
<path d="M66.0742 59.6464L66.0741 59.5617H66.0715H66.0688V59.3703C66.0688 59.2651 66.0688 59.1503 66.0688 59.1154V59.0518H66.0716H66.0744V59.2449C66.0744 59.3512 66.0744 59.504 66.0728 59.5846C66.0728 59.7079 66.0728 59.7176 66.0728 59.6464H66.0742Z" fill="#F97316"/>
<path d="M66.0738 59.566C66.0738 59.5609 66.0738 59.5277 66.0739 59.4921C66.0739 59.4566 66.0739 59.343 66.0739 59.2397L66.0739 59.0518H66.0716H66.0693V59.0281V59.0044H66.0723H66.0753V59.2486C66.0753 59.499 66.0736 59.5827 66.0736 59.566H66.0738Z" fill="#F97316"/>
<path d="M66.075 59.5543C66.0752 59.5536 66.075 59.5536 66.075 59.554C66.075 59.5544 66.076 59.5549 66.0747 59.555C66.0747 59.5551 66.075 59.5549 66.075 59.5543Z" fill="#F97316"/>
<path d="M66.0737 59.5505C66.0736 59.5472 66.0747 59.5455 66.0737 59.5464C66.0737 59.5471 66.0738 59.5496 66.0741 59.5519V59.5561L66.0737 59.5505Z" fill="#F97316"/>
</svg>
