<svg width="25" height="25" viewBox="0 0 25 25" fill="none" xmlns="http://www.w3.org/2000/svg">
<path d="M0.5 0.507932C1.07535 0.507932 1.70368 0.487493 2.26488 0.512234C2.81476 0.536476 3.23552 0.545752 3.65439 1.02485C4.17159 1.61643 4.17308 2.4559 4.4249 3.18219C4.63629 3.7919 4.85781 4.18815 5.58424 4.29192C9.93828 4.91393 15.2155 4.29915 19.695 4.29915C20.8014 4.29915 24.3462 4.15812 24.3462 5C24.3462 5.43245 24.3462 9 24.3462 10.5C24.3462 11.5 23.9793 12.6547 23.3314 13.5C22.7522 14.2557 21.2875 14.0583 20.3569 14.1029C18.6928 14.1828 17.7504 14.3648 15.7236 14.4294C13.1846 14.5103 12.2925 14.5958 10.2078 14.8444C9.61482 14.9151 9.23243 14.9874 8.66355 14.9983C7.48107 15.0208 6.31061 15.4233 6.494 17.0076C6.68248 18.6359 8.29432 18.5714 9.5459 18.572C11.1221 18.5726 13.0838 18.572 14.6204 18.572C15.7067 18.572 16.2881 18.572 17.4887 18.572C19.3225 18.572 20.2528 18.572 22.1219 18.572M5.13327 4.52216C5.13831 6.36816 6.91923 12.7222 7.33959 14.7808M8.23505 21.2545C10.2312 20.161 11.7163 23.3136 9.75377 24.3269C7.97311 25.2464 6.41707 22.2504 8.23505 21.2545ZM19.4983 21.1915C21.5616 20.3273 22.8745 23.5247 20.7884 24.3648C18.8346 25.1516 17.6839 21.9515 19.4983 21.1915Z" stroke="#2E2E2E" stroke-linecap="round"/>
</svg>
