<svg width="120" height="80" viewBox="0 0 120 80" fill="none" xmlns="http://www.w3.org/2000/svg">
<path d="M41.7263 79.6367C38.5291 78.5444 36.1073 75.6825 35.0714 71.7728L34.6647 70.2379L30.3133 70.1203L25.9619 70.0026L25.1753 69.2967C24.068 68.3031 23.6319 67.1158 23.5489 64.8683C23.4645 62.583 23.8106 61.3043 24.8298 60.1355L25.5605 59.2976V52.9438V46.59H22.1311C18.9488 46.59 18.6749 46.5561 18.3309 46.1194C17.8299 45.4834 17.864 44.5729 18.4151 43.8733L18.8701 43.2957H24.971C30.8623 43.2957 31.0885 43.3125 31.5602 43.7834C32.1578 44.3801 32.2113 45.4423 31.6779 46.1194C31.3689 46.5116 31.0599 46.59 29.8241 46.59H28.3411L28.3241 47.3547C28.3146 47.7753 28.294 50.5548 28.2782 53.5314L28.2495 58.9434L32.8312 59.0063L37.4129 59.0692L38.2992 58.206C41.6507 54.9419 46.2987 54.9664 49.8695 58.267L50.7285 59.0611H65.4873H80.2461V32.2248C80.2461 3.09052 80.2978 4.55977 79.2426 3.68214C78.8152 3.32676 76.7237 3.29424 54.291 3.29424C27.2518 3.29424 29.0574 3.18888 28.4544 4.8019C28.1978 5.48837 28.1553 6.29742 28.1977 9.69479L28.2485 13.7652L29.8186 13.8344C31.622 13.9139 32.0487 14.2195 32.0487 15.4317C32.0487 15.9833 31.9101 16.3401 31.5602 16.6894C31.0867 17.1622 30.8688 17.1771 24.4149 17.1771H17.7579L17.3029 16.5996C17.0527 16.2819 16.8479 15.8514 16.8479 15.6429C16.8479 15.1809 17.1997 14.2989 17.4781 14.063C17.5903 13.9679 19.4548 13.8885 21.6213 13.8865L25.5605 13.8829V9.57248C25.5605 4.73616 25.7435 3.49765 26.6672 2.08013C26.9758 1.6065 27.6619 0.944711 28.1919 0.609491L29.1555 0L54.191 0.00517741C78.9771 0.0102835 79.2349 0.0151331 80.0607 0.489657C81.181 1.13333 81.8729 1.99788 82.3996 3.41191C82.7612 4.38293 82.8381 4.96858 82.8396 6.76498L82.8414 8.94151H90.4326C98.2826 8.94151 99.3218 9.04183 100.71 9.93355C101.586 10.4962 103.098 12.256 103.611 13.3111C103.818 13.736 105.242 17.9298 106.775 22.6306C108.308 27.3315 109.741 31.7218 109.959 32.3869L110.354 33.5961L111.908 34.083C112.763 34.3508 114.156 34.9962 115.004 35.5173C116.778 36.6073 117.728 37.8255 118.043 39.4136C118.176 40.0819 118.248 43.811 118.248 50.0036V59.562L118.811 60.1631C119.74 61.1551 119.988 62.0081 119.999 64.2377C120.011 66.6904 119.887 67.2902 119.143 68.3651C117.985 70.0401 117.691 70.1203 112.709 70.1203H108.267L108.142 70.885C107.871 72.5395 106.759 75.0184 105.664 76.4082C100.597 82.8407 91.9819 80.1872 89.8753 71.545L89.5567 70.2379H71.5174H53.4781L53.054 71.7417C52.4613 73.8434 51.832 75.1202 50.6786 76.561C48.3776 79.4354 44.7674 80.6758 41.7263 79.6367ZM46.2767 76.116C48.0027 75.4654 49.8171 73.1818 50.5244 70.77C50.9651 69.2672 50.9111 66.3237 50.4124 64.6609C49.8825 62.8941 48.5936 61.1047 47.1759 60.1676C46.1262 59.4738 45.9104 59.4195 44.1907 59.4169C42.5367 59.4143 42.2124 59.487 41.1812 60.0916C39.7776 60.9145 38.5166 62.548 37.8385 64.4217C37.4313 65.5469 37.35 66.1139 37.3417 67.8849C37.3328 69.7802 37.392 70.1633 37.9054 71.5321C38.759 73.8079 40.3164 75.5782 42.0589 76.2534C42.8659 76.5662 45.2921 76.4871 46.2767 76.116ZM101.905 75.6799C103.221 74.8193 104.448 73.2214 105.055 71.5783C105.493 70.3925 105.55 69.9531 105.55 67.7673C105.55 65.3994 105.523 65.2346 104.914 63.8081C104.177 62.0819 103.187 60.9018 101.75 60.0342C100.871 59.5039 100.487 59.4192 98.9689 59.421C97.4263 59.4229 97.0645 59.5066 96.0522 60.0961C94.6522 60.9114 93.3936 62.5373 92.7039 64.4217C92.2875 65.5594 92.2107 66.0943 92.207 67.8849C92.2013 70.6699 92.7781 72.3712 94.3568 74.2265C95.887 76.0248 96.925 76.4953 99.1543 76.4013C100.642 76.3385 101.069 76.2266 101.905 75.6799ZM34.6439 66.2427C34.6439 65.9219 34.823 64.9669 35.0419 64.1204C35.2608 63.274 35.4068 62.557 35.3663 62.5272C35.3258 62.4973 33.2906 62.526 30.8437 62.5906L26.3947 62.7082L26.3394 64.3243C26.2518 66.8842 26.1485 66.826 30.7797 66.826H34.6439V66.2427ZM89.5209 66.0613C89.5242 65.6407 89.685 64.7153 89.8782 64.0049C90.0713 63.2945 90.1866 62.6592 90.1342 62.5931C90.0121 62.4389 52.7047 62.561 52.7575 62.7154C52.9637 63.3195 53.5521 66.0332 53.5521 66.3802C53.5521 66.8147 54.0089 66.826 71.5335 66.826H89.5148L89.5209 66.0613ZM117.023 66.3832C117.27 66.0373 117.327 65.5867 117.284 64.3257L117.228 62.7112L116.336 62.505C115.845 62.3916 113.663 62.3758 111.488 62.47L107.532 62.6411L107.772 63.3806C107.904 63.7873 108.111 64.7289 108.231 65.4731L108.449 66.826H112.578C116.386 66.826 116.732 66.7916 117.023 66.3832ZM93.0103 58.3859C94.8099 56.5871 97.3692 55.6188 99.6552 55.8719C101.43 56.0684 102.878 56.7249 104.362 58.0059L105.585 59.0611H110.619H115.653V56.5904V54.1197H114.145C113.316 54.1197 112.294 53.9909 111.874 53.8335C110.856 53.4517 109.32 51.5024 109.019 50.2099C108.371 47.4252 109.246 44.5531 111.181 43.1139C111.907 42.5732 112.285 42.4715 113.862 42.3911L115.697 42.2976L115.585 41.2577C115.523 40.6858 115.385 40.0107 115.278 39.7575C115.03 39.1698 113.934 38.462 111.957 37.6137L110.393 36.9426H99.0184H87.6442L87.1892 36.365L86.7342 35.7874V26.4706C86.7342 16.6797 86.7823 16.0631 87.5767 15.6762C87.7417 15.5958 90.9147 15.53 94.6278 15.53C99.6635 15.53 101.379 15.46 101.379 15.2544C101.379 15.1028 101.006 14.5255 100.551 13.9716C99.1607 12.281 98.8938 12.2358 90.3154 12.2358H82.8413V35.6484V59.0611H87.588H92.3348L93.0103 58.3859ZM87.3316 44.106C87.026 43.8343 86.9196 43.5034 86.9196 42.8251C86.9196 41.332 87.258 41.178 90.5407 41.178C93.0994 41.178 93.3724 41.2189 93.7435 41.6578C94.2517 42.2588 94.2868 43.5354 93.8102 44.0828C93.3241 44.6413 87.9552 44.6604 87.3316 44.106ZM115.653 48.2371V45.8841H114.211C112.591 45.8841 112.059 46.1927 111.673 47.3571C111.367 48.2803 111.601 49.6098 112.166 50.1614C112.495 50.4832 112.947 50.5809 114.123 50.5849L115.653 50.5901V48.2371ZM106.261 29.9423C105.592 27.904 104.52 24.595 103.878 22.5891L102.712 18.9419H96.0672H89.4221L89.3731 26.2951L89.3242 33.6483H98.4009H107.478L106.261 29.9423ZM36.5638 44.2389C35.563 43.7263 35.5707 43.819 35.5707 32.3149V21.6741L36.018 21.0139L36.4653 20.3537L44.907 20.288L53.3487 20.2223L53.9602 20.9156L54.5717 21.6089L54.6294 31.8052C54.6676 38.5598 54.6203 42.2906 54.4891 42.8579C54.1167 44.4681 54.0803 44.4742 44.9968 44.4573C40.5772 44.4491 36.7823 44.3509 36.5638 44.2389ZM51.9764 32.3542V23.6479L50.4471 23.5796L48.9177 23.5113V26.9156C48.9177 30.3131 48.9159 30.3209 48.4293 30.8076C47.7968 31.4391 47.7013 31.4289 46.2658 30.5762L45.0553 29.8572L43.9267 30.5804C43.1395 31.0848 42.6569 31.2586 42.3315 31.1549C41.4511 30.8744 41.3174 30.2965 41.3174 26.7722V23.5303H39.7417H38.166V32.357V41.1838L45.0712 41.1221L51.9764 41.0604V32.3542ZM46.3225 25.1662V23.5078L45.1639 23.5779L44.0053 23.6479L43.9501 25.1186C43.892 26.6666 43.941 26.7428 44.7464 26.3541C45.1082 26.1795 45.3616 26.2074 45.7316 26.4624C46.0056 26.6512 46.2506 26.8099 46.2761 26.8151C46.3016 26.8203 46.3225 26.0783 46.3225 25.1662ZM57.4654 44.1439C56.5379 43.4914 56.5317 43.4149 56.5247 32.5658C56.5202 25.7293 56.5851 22.1802 56.7236 21.6758C57.1177 20.2407 57.1481 20.2361 66.0649 20.2361C74.862 20.2361 75.0465 20.2621 75.4343 21.5568C75.6823 22.3848 75.6697 42.7185 75.4208 43.3088C74.943 44.4419 74.6919 44.4728 66.0277 44.4639C59.6446 44.4574 57.8137 44.3889 57.4654 44.1439ZM73.0165 32.3542V23.5303H71.4408H69.8651V26.9251C69.8651 30.3123 69.8632 30.321 69.3766 30.8076C68.737 31.4463 68.5795 31.4285 67.2326 30.5655L66.0937 29.8357L65.0362 30.4773C63.8066 31.2233 63.1386 31.2851 62.6293 30.7C62.299 30.3205 62.2647 29.9633 62.2647 26.8962V23.5113L60.7354 23.5796L59.206 23.6479L59.1573 32.1177C59.1305 36.7761 59.1488 40.7204 59.1978 40.8828C59.2672 41.1122 60.817 41.178 66.1518 41.178H73.0165V32.3542ZM65.9722 26.2958C66.1251 26.2889 66.4797 26.3636 66.7601 26.4618L67.2698 26.6403V25.0853V23.5303H66.0649H64.86V25.0872C64.86 26.5947 64.8733 26.6388 65.2771 26.4762C65.5065 26.3838 65.8193 26.3027 65.9722 26.2958ZM6.58457 36.4549C6.02251 35.8937 5.94199 34.9736 6.38472 34.1713C6.66917 33.6558 6.73628 33.6483 11.083 33.6483C15.0489 33.6483 15.5219 33.6898 15.7824 34.0601C16.3779 34.907 16.207 36.231 15.4453 36.6716C15.1385 36.849 13.6117 36.9426 11.0249 36.9426C7.30758 36.9426 7.04402 36.9136 6.58457 36.4549ZM22.6872 36.7829C22.0537 36.5706 21.6676 35.9629 21.6676 35.1778C21.6676 33.6994 21.8398 33.6483 26.8264 33.6483C31.0599 33.6483 31.3276 33.6743 31.6779 34.1189C32.1625 34.7341 32.1534 35.8079 31.6587 36.3767C31.3025 36.7862 30.9141 36.8285 27.1634 36.8661C24.9054 36.8887 22.8911 36.8513 22.6872 36.7829ZM0.362976 26.4399C-0.141572 25.6257 -0.122091 25.0488 0.433781 24.3432L0.888789 23.7656H5.5066C9.8976 23.7656 10.1484 23.7896 10.6128 24.2533C11.2104 24.85 11.2639 25.9121 10.7305 26.5892C10.3788 27.0356 10.1126 27.0598 5.55347 27.0598H0.747178L0.362976 26.4399ZM15.193 26.4399C14.7155 25.6693 14.7077 25.1527 15.163 24.4388L15.5172 23.8833L23.2872 23.8171C30.9436 23.7519 31.0643 23.7582 31.5529 24.246C32.1578 24.8499 32.2142 25.9084 31.6779 26.5892C31.3188 27.0451 31.0599 27.0598 23.4421 27.0598H15.5772L15.193 26.4399Z" fill="#2E2E2E"/>
<path d="M42.0561 76.3537C39.238 75.2683 37.185 71.6161 37.1966 67.709C37.2029 65.5262 37.7595 63.7452 38.9982 61.9422C40.9695 59.0729 44.702 58.2581 47.2659 60.1374C47.9849 60.6644 48.9323 61.6495 49.3712 62.3266C50.9146 64.7072 51.3232 68.8936 50.2722 71.5594C49.6901 73.0361 48.1868 75.0136 47.1017 75.7299C46.0083 76.4518 43.2092 76.7978 42.0561 76.3537Z" fill="#F97316"/>
<path d="M97.4477 76.7924C96.8443 76.672 95.8632 76.1283 95.2675 75.5842C91.4611 72.107 90.9647 65.7479 94.1741 61.5765C95.4674 59.8956 96.4985 59.3081 98.4793 59.1239C100.634 58.9236 102.174 59.6091 103.714 61.4543C105.273 63.322 105.975 65.6429 105.822 68.4206C105.679 71.0318 105.157 72.5971 103.87 74.2764C102.176 76.4866 100.063 77.3144 97.4477 76.7924Z" fill="#F97316"/>
<path d="M112.481 50.4029C111.264 49.7732 111.015 47.6766 112.006 46.4039C112.299 46.028 112.945 45.8542 114.05 45.8542H115.666V48.3048V50.7554L114.371 50.7332C113.659 50.721 112.809 50.5724 112.481 50.4029Z" fill="#FBD383"/>
</svg>
