<svg width="80" height="80" viewBox="0 0 80 80" fill="none" xmlns="http://www.w3.org/2000/svg">
<path d="M66.8623 0.0817052C60.5457 0.866061 54.2233 1.63559 47.8963 2.34288C44.6068 2.71062 40.5276 2.69584 37.4902 3.98423C35.2933 4.91608 34.0322 6.60454 32.5876 8.3257C30.7458 10.52 28.8852 12.7021 27.0641 14.9114C21.0317 22.2299 14.8929 29.4896 8.72236 36.707C7.08073 38.6271 5.51791 40.6076 3.85083 42.5086C2.49424 44.0556 0.922558 45.5634 0.303251 47.5263C-1.14763 52.125 2.89848 54.9007 6.27183 57.372C14.0384 63.0616 21.8164 68.7393 29.6017 74.4061C32.9872 76.8704 36.3542 80.4306 41.0149 79.9572C43.6172 79.6929 45.35 77.7029 46.8308 75.9076C49.2608 72.9612 51.7536 70.0591 54.2031 67.1266C60.2192 59.9241 66.2472 52.7258 72.2133 45.4879C74.6995 42.4717 78.6715 39.0545 79.7058 35.2957C80.5921 32.0747 79.2439 28.0192 78.7078 24.79L76.3327 10.3641C75.9853 8.27171 76.0441 5.69828 75.0232 3.77842C73.4545 0.828431 70.2115 -0.33417 66.8623 0.0817052ZM67.5337 2.72558C69.7608 2.47753 71.9489 3.58989 72.6051 5.66005C73.327 7.93799 73.419 10.5241 73.7894 12.873C74.5153 17.4769 75.3221 22.0676 76.048 26.6716C76.4548 29.2514 77.5137 32.4141 76.6911 34.9821C75.6782 38.1444 71.9035 41.1524 69.7953 43.7631C63.8676 51.1034 57.6216 58.2182 51.6939 65.5586C49.4306 68.3613 47.0658 71.0924 44.766 73.8691C43.4976 75.4006 42.4132 77.05 40.1757 77.2711C37.0612 77.5789 33.5254 73.8081 31.2801 72.1448C24.047 66.7865 16.7618 61.4827 9.46081 56.2053C6.6834 54.1976 1.95669 51.9299 3.32918 47.9967C3.79177 46.671 4.99583 45.6208 5.90079 44.5471C7.62045 42.5066 9.35744 40.4788 11.068 38.4318C17.1513 31.1519 23.192 23.8231 29.4008 16.6362C31.2739 14.4682 33.0883 12.254 34.9139 10.0505C35.9894 8.75251 37.0299 7.21661 38.6651 6.49536C41.5385 5.22799 45.766 5.32082 48.9034 5.00683C55.1293 4.38372 61.3162 3.41806 67.5337 2.72558ZM57.9668 11.5351C49.2476 13.0614 52.0198 25.986 60.6522 24.5604C67.5355 23.4237 68.9542 13.68 61.8271 11.6875C60.6644 11.3625 59.1607 11.3261 57.9668 11.5351ZM58.6381 14.1789C63.8789 13.3185 65.713 20.8143 60.4844 21.7374C55.238 22.6637 53.4256 15.0347 58.6381 14.1789ZM34.9818 26.9698C33.4972 27.4822 33.7176 29.8861 32.2799 30.5613C30.8095 31.2519 28.5877 28.7462 27.3388 30.0143C26.2825 31.0868 27.7696 33.1381 26.6622 34.3112C25.6205 35.4147 22.6528 34.3891 22.0572 35.7832C21.4419 37.2233 23.8438 38.4882 23.4799 39.9998C23.0982 41.5854 19.9217 41.7323 20.0823 43.4432C20.2356 45.0768 23.1748 45.1133 23.4574 46.7424C23.7124 48.2125 21.0532 49.5405 21.9117 50.9534C22.7164 52.2777 25.4454 51.2887 26.4793 52.5775C27.377 53.6966 25.7477 56.1795 27.1089 56.9301C28.5035 57.6991 30.1652 55.9338 31.615 56.426C33.377 57.0241 32.6699 59.4943 34.1515 60.2206C35.7903 61.0238 36.9459 57.7626 38.6651 57.9354C40.2053 58.0903 41.178 60.8376 42.8537 60.2648C44.2148 59.7996 44.0644 57.5579 45.1002 56.6889C46.5931 55.4363 48.791 57.8895 50.1928 56.818C51.0703 56.1471 50.398 54.2388 50.4147 53.328C50.4364 52.1514 51.489 51.9349 51.7947 50.9619C52.0207 50.2429 51.5607 49.509 51.9779 48.787C52.6835 47.5658 55.6436 47.5218 55.7501 46.1127C55.873 44.4892 53.0479 43.9323 53.0058 42.3518C52.9655 40.8387 55.7926 39.8575 55.1775 38.2836C54.6453 36.9218 51.7908 37.3129 50.8742 36.0633C49.9305 34.7766 51.9268 32.4867 50.6768 31.4703C49.4317 30.4578 47.3152 32.2985 45.9133 31.5123C44.4939 30.7161 45.0803 27.9134 43.5167 27.526C41.8083 27.1027 40.8534 29.6536 39.1686 29.5736C37.5466 29.4967 36.7065 26.3746 34.9818 26.9698ZM42.3576 31.0621C43.885 33.5069 45.0418 34.1981 48.0642 34.1981C48.0642 36.9128 48.9345 38.0155 51.421 39.3726L50.2838 42.5086L51.7567 45.4879C50.702 46.1963 49.685 46.93 49.3219 48.1535C49.1435 48.7551 49.3287 49.4772 49.0607 50.0352C48.3304 51.5558 47.5609 52.1681 47.5607 53.9552C44.7339 53.7468 43.3796 54.3026 41.8541 56.6209C40.3562 55.9278 39.0712 55.0279 37.3224 55.6093C36.5499 55.8661 35.9042 56.3508 35.1404 56.6209C34.0585 54.3084 32.1176 53.6741 29.6017 54.112C28.7919 51.5524 28.524 50.1636 25.4057 49.408C26.2174 47.1471 26.5447 45.2607 24.2308 43.6063C24.5301 42.6099 25.5481 42.0448 25.9875 41.0974C26.6048 39.7668 25.9466 38.6084 25.5735 37.3342C27.0935 37.142 28.5268 36.4832 29.211 35.1389C29.4557 34.6581 29.4192 33.404 29.8708 33.119C30.3722 32.8026 31.5142 33.2844 32.1193 33.2295C33.6795 33.088 34.894 31.9605 35.644 30.7485C36.5711 30.9891 37.2363 31.6961 38.1616 31.9864C39.8025 32.5013 40.927 31.616 42.3576 31.0621ZM35.644 35.8618C31.9091 36.0792 31.4112 42.3311 35.8118 42.0229C39.4181 41.7703 39.8398 35.6176 35.644 35.8618ZM35.8185 37.261C37.9774 36.7148 36.8921 40.3101 35.4756 40.6727C33.3439 41.2184 34.3855 37.6235 35.8185 37.261ZM32.455 45.9583C32.6674 46.4213 32.9784 47.0372 33.6365 46.9226C34.4543 46.7801 35.2932 46.0095 35.9796 45.5964C37.7245 44.5465 39.4555 43.4798 41.1827 42.4041C41.8991 41.9579 43.1319 41.4623 43.5808 40.7549C43.89 40.2677 43.4645 39.6573 42.8585 39.7478C42.219 39.8433 41.5414 40.4053 41.0149 40.7317L39.5043 41.6724L36.651 43.449C35.2743 44.2969 33.8947 45.2095 32.455 45.9583ZM40.3436 44.95C36.7976 45.849 36.9617 51.9586 41.1827 51.0486C44.9198 50.2429 44.6485 43.8585 40.3436 44.95ZM41.0154 46.3689C43.1284 45.6912 42.1233 49.1311 40.8319 49.6044C38.6428 50.4068 39.4637 46.8667 41.0154 46.3689Z" fill="#2E2E2E"/>
<path d="M34.0779 60.0702C33.6226 59.8109 33.4406 59.5019 33.0958 58.4026C32.4366 56.3016 31.541 55.8833 29.4139 56.6828C27.9331 57.2394 27.1695 57.1529 26.7659 56.383C26.5704 56.0101 26.5636 55.8705 26.6909 54.8474C26.9863 52.4734 26.6382 52.0115 24.357 51.7502C22.8512 51.5777 22.4723 51.4613 22.1109 51.0601C21.6396 50.5368 21.7428 49.986 22.5103 48.9292C23.3491 47.7743 23.4798 47.5073 23.4798 46.9488C23.4798 46.2429 23.1087 45.8012 21.9935 45.18C20.7012 44.4602 20.1567 43.9123 20.1567 43.3316C20.1567 42.74 20.5706 42.3102 21.7942 41.6311C23.7534 40.5438 24.0175 39.7368 22.9345 38.1468C22.2909 37.202 22.0556 36.7022 22.0556 36.28C22.0556 35.4026 22.4887 35.1588 24.3405 34.9938C26.8912 34.7665 27.0996 34.5437 27.0996 32.0449V30.3572L27.4287 30.0492C27.9074 29.601 28.4889 29.6402 29.9172 30.2168C32.0477 31.077 32.6944 30.8462 33.5812 28.9096C34.1697 27.6242 34.5061 27.1928 35.0506 27.0249C35.6704 26.8338 36.1914 27.1253 37.2068 28.2312C38.2386 29.3549 38.5691 29.5731 39.2407 29.5741C39.847 29.575 40.3042 29.3717 40.9692 28.8056C42.0854 27.8554 42.575 27.5791 43.1424 27.5791C43.5899 27.5791 43.7364 27.6363 44.0239 27.9239C44.2142 28.1142 44.4483 28.5365 44.5462 28.8663C44.6439 29.195 44.8025 29.729 44.8987 30.053C45.266 31.2902 45.9788 31.8535 47.0381 31.7437C47.3644 31.7098 47.9786 31.5826 48.4029 31.4609C49.6998 31.089 50.5104 31.2043 50.8448 31.8084C51.0742 32.2228 51.0582 32.6266 50.7599 33.9545C50.4431 35.3653 50.5081 35.796 51.1198 36.3397C51.4721 36.6527 51.8482 36.8143 52.9975 37.1464C54.2201 37.4997 54.4893 37.6199 54.8012 37.9517C55.4579 38.6505 55.3177 39.1251 54.0457 40.5084C52.527 42.16 52.5471 42.5766 54.2195 44.0996C55.5072 45.2723 55.6425 45.4575 55.6425 46.0473C55.6425 46.5876 55.1308 47.0388 54.0297 47.4696C52.1041 48.2229 51.6448 48.7174 51.761 49.9119C51.8439 50.7635 51.6748 51.2268 51.0139 51.959C50.4261 52.6103 50.3158 53.0186 50.4415 54.0785C50.4885 54.4748 50.5297 55.1321 50.5331 55.539C50.5383 56.1758 50.4968 56.326 50.2353 56.6163C49.7629 57.1408 49.3453 57.1547 47.9242 56.6934C46.1126 56.1053 45.2747 56.1838 44.7403 56.9916C44.6063 57.1942 44.3289 57.8067 44.1238 58.3525C43.5447 59.8944 43.021 60.3882 42.1302 60.232C41.84 60.1812 41.4287 59.8898 40.6365 59.1738C39.6216 58.2565 38.9589 57.8482 38.4851 57.8482C38.0722 57.8482 37.422 58.2509 36.5516 59.0456C35.1417 60.3329 34.7927 60.4774 34.0779 60.0702ZM36.486 56.0635C37.6281 55.5086 37.6657 55.499 38.5459 55.5369C39.331 55.5707 39.5936 55.6433 40.6585 56.121C41.3273 56.421 41.8913 56.6455 41.912 56.6198C41.9326 56.5942 42.1464 56.3171 42.3871 56.004C43.4653 54.6018 44.4835 54.083 46.3303 53.9949C47.7123 53.929 47.5679 54.0411 47.7534 52.8914C47.7947 52.6348 48.1233 51.8906 48.4834 51.2374C49.0611 50.1897 49.156 49.9222 49.289 48.9665C49.4964 47.4772 49.8762 46.9159 51.4574 45.7627L51.8374 45.4855L51.0972 43.9985L50.3569 42.5114L50.8471 41.1711C51.1167 40.434 51.3732 39.7236 51.4172 39.5925C51.4852 39.3895 51.3742 39.2779 50.669 38.8399C49.0041 37.8059 48.3148 36.7456 48.1958 35.0355L48.1321 34.1207H47.5123C45.4477 34.1207 44.0415 33.3844 42.8744 31.6922C42.6187 31.3215 42.3681 31.0177 42.3175 31.0172C42.2669 31.0167 41.8513 31.1923 41.3938 31.4075C39.5743 32.2635 38.6879 32.2676 37.1875 31.4268C36.4853 31.0333 35.7603 30.6836 35.6468 30.6836C35.6303 30.6836 35.4832 30.8707 35.3198 31.0994C34.8335 31.7802 33.9076 32.5583 33.2233 32.8614C32.6072 33.1342 32.5272 33.1423 31.1755 33.0664L29.7688 32.9874L29.606 33.36C29.5164 33.565 29.4047 33.981 29.3579 34.2845C29.25 34.9822 28.9379 35.5559 28.3851 36.0723C27.8848 36.5398 26.6623 37.1085 25.9718 37.195C25.7109 37.2277 25.4974 37.2641 25.4974 37.2758C25.4974 37.2875 25.624 37.6925 25.7788 38.1759C26.4066 40.1366 26.3249 40.6677 25.1795 42.0702C24.0308 43.4767 24.0401 43.4292 24.7735 44.1537C25.1137 44.4897 25.5069 45.0017 25.6474 45.2914C26.0003 46.0194 25.9911 47.2779 25.6237 48.5119C25.4731 49.0178 25.3697 49.4435 25.3939 49.458C25.4182 49.4725 25.7505 49.5798 26.1324 49.6965C27.6827 50.1703 28.4828 51.0287 29.1286 52.9107L29.5483 54.1339H30.9349C32.2923 54.1339 32.3376 54.142 33.0812 54.5185C33.8606 54.9133 34.5712 55.6147 34.8666 56.2811C34.9514 56.4722 35.0886 56.6286 35.1717 56.6286C35.2547 56.6286 35.8462 56.3743 36.486 56.0635Z" fill="#F97316"/>
<path d="M35.004 41.9895C33.8844 41.8335 33.0942 41.1533 32.8033 40.0951C32.7111 39.7598 32.6892 39.545 32.7021 39.1025C32.7112 38.7908 32.7239 38.6698 32.7675 38.4776C32.8788 37.9873 33.0887 37.512 33.3636 37.1285C33.6139 36.7791 34.0373 36.4071 34.406 36.2126C34.8292 35.9894 35.3467 35.8655 35.8597 35.8645C37.2805 35.8617 38.258 36.6239 38.5742 37.981C38.6172 38.1655 38.6221 38.2383 38.6218 38.6866C38.6215 39.157 38.6181 39.2014 38.5636 39.4412C38.2423 40.8548 37.2866 41.8091 36.011 41.9901C35.77 42.0243 35.2516 42.024 35.004 41.9895ZM35.4183 40.6947C35.89 40.5943 36.346 40.1641 36.6836 39.5012C36.8139 39.2452 36.9294 38.931 36.9902 38.667C37.0195 38.5396 37.0282 38.4197 37.0272 38.1574C37.026 37.8544 37.0204 37.8006 36.9795 37.6968C36.8904 37.4702 36.7504 37.3241 36.546 37.2445C36.3465 37.1667 35.9151 37.1966 35.6569 37.306C35.0735 37.5534 34.5073 38.3726 34.3099 39.255C34.2483 39.5304 34.2426 39.9696 34.2981 40.1554C34.348 40.3224 34.4013 40.4164 34.5062 40.5228C34.7078 40.7271 35.004 40.7829 35.4183 40.6947Z" fill="#2E2E2E"/>
<path d="M33.2835 46.9014C33.0036 46.8157 32.7533 46.5499 32.5417 46.1136L32.4697 45.9651L32.8084 45.7825C32.9947 45.682 33.3832 45.4626 33.6717 45.2949C34.2312 44.9697 41.0268 40.7462 41.4007 40.4913C42.1797 39.9604 42.6013 39.7626 42.9662 39.7572C43.1169 39.755 43.1489 39.7614 43.2751 39.8194C43.5808 39.9599 43.7356 40.2862 43.6403 40.5892C43.5481 40.8826 43.1395 41.2678 42.5358 41.6307C42.4377 41.6896 42.1308 41.8617 41.8539 42.013C41.577 42.1643 40.844 42.6016 40.2252 42.9847C38.8228 43.8528 37.9693 44.3764 36.9341 45.0037C35.8516 45.6596 35.7583 45.7189 35.269 46.0615C34.5976 46.5316 34.2159 46.7467 33.85 46.8613C33.704 46.907 33.3774 46.9301 33.2835 46.9014Z" fill="#2E2E2E"/>
<path d="M40.1127 51.1216C39.6413 51.0614 39.335 50.9616 39.0113 50.763C38.7036 50.5742 38.3652 50.1948 38.1818 49.8331C37.9654 49.4062 37.8779 49.0365 37.8632 48.4867C37.8512 48.0362 37.8825 47.7637 37.992 47.3647C38.3379 46.1043 39.2263 45.226 40.4458 44.939C40.9497 44.8204 41.5127 44.8087 41.917 44.9084C42.8424 45.1366 43.4851 45.853 43.7116 46.9089C43.7768 47.2128 43.7922 47.8147 43.7432 48.1427C43.6704 48.6303 43.4809 49.1719 43.2543 49.5402C42.7214 50.4066 41.9548 50.9177 40.9415 51.0823C40.7478 51.1138 40.2398 51.1379 40.1127 51.1216ZM40.5835 49.6904C40.6592 49.6733 40.8094 49.6197 40.9172 49.5714C41.0825 49.4974 41.1419 49.4569 41.2949 49.3135C41.6887 48.9444 42.0314 48.323 42.1808 47.7072C42.235 47.4839 42.256 47.071 42.2225 46.8863C42.1334 46.3938 41.7685 46.1881 41.2011 46.3106C40.8518 46.386 40.5504 46.5629 40.2883 46.8461C40.0237 47.1322 39.7967 47.5156 39.6535 47.9183C39.5312 48.2624 39.5043 48.4178 39.5043 48.7807C39.5043 49.0673 39.5098 49.119 39.5526 49.2345C39.6793 49.5772 39.8849 49.7188 40.2583 49.7206C40.3614 49.7211 40.5077 49.7075 40.5835 49.6904Z" fill="#2E2E2E"/>
<path d="M0.0994663 50.3294C0.061244 50.2281 0.0253906 49.773 0.0253906 49.3891C0.0253906 48.0363 0.465696 46.7714 1.40355 45.4301C1.76844 44.9082 2.22122 44.3625 3.24211 43.214C4.54418 41.7492 4.74102 41.5179 6.80516 39.027C7.98625 37.6017 8.35114 37.1701 11.1992 33.8297C16.6523 27.4338 22.1572 20.885 26.165 16.0263L26.8325 15.2169L28.7128 15.2166L30.593 15.2163L30.4856 15.341C30.4265 15.4096 30.3334 15.5188 30.2788 15.5836C30.2241 15.6484 29.6054 16.3687 28.9039 17.1844C25.1297 21.5726 22.165 25.0924 14.6972 34.0514C10.2453 39.3924 10.7104 38.8374 8.04076 41.9929C5.82428 44.6127 5.67683 44.7844 5.05125 45.4731C3.83528 46.8117 3.43013 47.4563 3.18008 48.4501C3.05043 48.9654 3.05448 49.8488 3.18857 50.3017L3.20704 50.364H1.65979C0.448743 50.364 0.1097 50.3565 0.0994663 50.3294Z" fill="#2E2E2E"/>
<path d="M58.4222 24.5912C55.8065 24.2158 53.7172 22.3284 52.9572 19.6541C52.74 18.8896 52.687 18.4989 52.6865 17.6555C52.6859 16.5605 52.8565 15.7654 53.2843 14.8697C53.8524 13.6802 54.9437 12.6367 56.1903 12.0909C57.9133 11.3366 60.2216 11.2128 62.0344 11.7774C64.2323 12.4621 65.7394 13.9623 66.2954 16.0192C66.4697 16.6638 66.5216 17.1707 66.493 17.9495C66.3847 20.9057 64.4097 23.47 61.5922 24.3127C60.8199 24.5437 60.4361 24.5996 59.5197 24.6146C59.0581 24.6221 58.5643 24.6116 58.4222 24.5912ZM60.4877 21.7498C62.0078 21.4962 63.1009 20.5979 63.4929 19.2802C63.5733 19.0097 63.5854 18.8732 63.5845 18.2435C63.5834 17.4513 63.5487 17.2661 63.2789 16.6124C62.8846 15.6572 62.0675 14.827 61.1237 14.4229C59.8721 13.8868 58.1746 14.0241 57.0235 14.7543C56.436 15.1271 55.9596 15.7246 55.7264 16.3815C55.5648 16.8364 55.5132 17.1457 55.5128 17.6602C55.5113 19.5878 56.8146 21.2841 58.6315 21.7192C59.1939 21.8539 59.8034 21.864 60.4877 21.7498Z" fill="#2E2E2E"/>
</svg>
