<svg width="68" height="68" viewBox="0 0 68 68" fill="none" xmlns="http://www.w3.org/2000/svg">
<path d="M18.1975 67.8135C17.6483 67.6144 16.8872 67.0607 16.5958 66.6482C16.4846 66.4907 16.3538 65.5243 16.3051 64.5006L16.2167 62.6393L15.4278 62.5634C13.287 62.3575 12.1724 60.6944 13.1386 59.1477C13.5765 58.4467 14.2112 58.1144 15.3246 58.0035L16.2167 57.9145V57.0555V56.1964L8.67813 56.1748C-0.244103 56.1492 0.615195 56.1773 0.275498 55.8998C0.0269516 55.6969 0 52.9737 0 28.0624C0 3.1511 0.0269516 0.427971 0.275498 0.22499C0.523332 0.0225897 3.02196 0 25.1604 0H49.7698L50.0427 0.318208C50.2792 0.594022 50.3156 1.44231 50.3156 6.68532V12.7342L58.2486 12.7742L66.1817 12.8142L66.7554 13.1484C67.071 13.3322 67.4858 13.7334 67.6772 14.0398C68.0212 14.5904 68.0248 14.9056 67.9801 40.4906L67.9348 66.3842L67.4426 66.9113C67.1718 67.2012 66.6424 67.5666 66.2662 67.7234C65.5928 68.0039 65.2143 68.0082 42.1266 67.9968C24.2995 67.9879 18.5575 67.944 18.1975 67.8135ZM65.6321 66.1367L66.094 65.84V40.3406C66.094 16.8141 66.0716 14.821 65.8039 14.5794C65.5256 14.3282 64.5641 14.3176 42.2239 14.3176C19.1679 14.3176 18.9306 14.3204 18.5835 14.6039C18.2753 14.8556 18.2328 15.0812 18.2328 16.4652V18.0401H19.5943C21.2405 18.0401 21.9998 18.318 22.569 19.1288C23.3255 20.2064 22.955 21.6218 21.7392 22.2996C21.2536 22.5703 20.9275 22.6217 19.6971 22.6217H18.2328V23.624V24.6262H19.5547C21.2247 24.6262 22.1056 24.955 22.6134 25.7678C23.3046 26.8744 22.9263 28.224 21.7392 28.8857C21.2536 29.1564 20.9275 29.2078 19.6971 29.2078H18.2328V30.1954V31.1829L19.7103 31.2334C21.3434 31.2892 21.8475 31.487 22.5719 32.3562C23.116 33.0092 23.116 34.1402 22.5719 34.7931C21.8597 35.6477 21.3736 35.8384 19.7271 35.9089L18.2328 35.973V36.9573V37.9415H19.6971C21.3787 37.9415 22.0734 38.2112 22.6417 39.0847C23.3184 40.1246 22.9053 41.551 21.7392 42.201C21.2536 42.4717 20.9275 42.5232 19.6971 42.5232H18.2328V43.5107V44.4982L19.7103 44.5487C20.8693 44.5883 21.2944 44.6638 21.6826 44.8987C23.4234 45.9524 23.4234 47.8276 21.6826 48.8813C21.2944 49.1163 20.8693 49.1917 19.7103 49.2313L18.2328 49.2818V50.2693V51.2569H19.6441C21.2976 51.2569 21.8831 51.4532 22.523 52.2223C23.123 52.9434 23.1452 54.1476 22.5713 54.8431C21.9543 55.5908 21.1864 55.8788 19.6109 55.9533L18.2328 56.0185V57.0023V57.9861H19.6971C20.9276 57.9861 21.2565 58.038 21.757 58.3111C22.9577 58.9662 23.3256 60.4013 22.569 61.479C21.9998 62.2898 21.2405 62.5677 19.5943 62.5677H18.2328V64.1692C18.2328 65.6165 18.2695 65.8027 18.614 66.1021L18.9952 66.4335H42.0827H65.1701L65.6321 66.1367ZM20.8275 60.821C20.9432 60.7265 21.0379 60.4817 21.0379 60.2769C21.0379 59.6109 20.816 59.5611 17.8533 59.5611C15.3002 59.5611 15.0756 59.5822 14.908 59.838C14.6666 60.2064 14.6784 60.6099 14.9369 60.821C15.0825 60.9399 15.9888 60.9928 17.8822 60.9928C19.7756 60.9928 20.6819 60.9399 20.8275 60.821ZM12.8367 53.7835C12.6939 52.3766 13.6182 51.4443 15.3246 51.2742L16.2167 51.1853V50.2564V49.3275L15.3513 49.2264C12.6396 48.9097 11.8418 46.2538 14.056 44.9145C14.3177 44.7563 14.9218 44.5997 15.4222 44.5604L16.3193 44.49L16.268 43.5424L16.2167 42.5947L15.3401 42.5191C14.858 42.4774 14.242 42.3226 13.9713 42.175C12.867 41.573 12.4753 40.0905 13.1605 39.1064C13.6647 38.3824 14.2858 38.0497 15.2791 37.9718L16.129 37.9051V36.9397V35.9743L15.3201 35.8999C14.4014 35.8153 13.7709 35.4854 13.177 34.7785C12.8347 34.3712 12.7787 34.1542 12.8377 33.4654C12.9463 32.1975 13.8576 31.3841 15.3201 31.2495L16.129 31.175V30.1914V29.2078H15.366C13.8984 29.2078 12.7989 28.2206 12.7983 26.9024C12.7978 25.7404 14.0977 24.6262 15.4537 24.6262H16.129V23.7671C16.129 23.2947 16.1313 22.8598 16.1341 22.8007C16.1368 22.7417 15.7456 22.6596 15.2647 22.6183C13.7779 22.4908 12.798 21.5907 12.798 20.3527C12.798 19.1175 13.8473 18.1965 15.4278 18.0444L16.2167 17.9685L16.3044 16.1073C16.3823 14.4527 16.4374 14.194 16.8003 13.7785C17.6921 12.7573 16.6591 12.8222 33.31 12.7426L48.2995 12.671L48.3454 7.12299L48.3912 1.57493H25.1599H1.92847V28.0386C1.92847 42.5936 1.96126 54.529 2.00134 54.5618C2.04141 54.5946 4.5131 54.6036 7.49397 54.5818L12.9138 54.542L12.8367 53.7835ZM20.8275 54.0917C20.9432 53.9972 21.0379 53.7524 21.0379 53.5477C21.0379 52.8845 20.8102 52.8318 17.9473 52.8318C15.754 52.8318 15.2283 52.8719 15.002 53.0568C14.6817 53.3183 14.6534 53.5982 14.908 53.9866C15.0756 54.2424 15.3002 54.2636 17.8533 54.2636C19.7692 54.2636 20.6817 54.2108 20.8275 54.0917ZM20.7624 47.4525C21.1578 47.1296 21.1027 46.5854 20.6482 46.3254C20.3421 46.1503 19.7493 46.1025 17.8822 46.1025C15.2811 46.1025 14.7265 46.2406 14.7265 46.8879C14.7265 47.5938 15.0611 47.6775 17.8822 47.6775C20.0163 47.6775 20.5367 47.6368 20.7624 47.4525ZM20.8275 40.7764C20.9432 40.6819 21.0379 40.4371 21.0379 40.2323C21.0379 39.5692 20.8102 39.5165 17.9473 39.5165C15.0725 39.5165 14.7265 39.5991 14.7265 40.2855C14.7265 40.8918 14.9954 40.9482 17.8822 40.9482C19.7756 40.9482 20.6819 40.8954 20.8275 40.7764ZM20.7173 34.1252C21.1107 33.8344 21.1318 33.3139 20.7624 33.0122C20.3457 32.6719 15.5101 32.682 15.0471 33.0242C14.6537 33.315 14.6326 33.8354 15.002 34.1372C15.4187 34.4775 20.2543 34.4674 20.7173 34.1252ZM20.8275 27.4611C20.9432 27.3666 21.0379 27.1218 21.0379 26.917C21.0379 26.2539 20.8102 26.2011 17.9473 26.2011C15.0725 26.2011 14.7265 26.2838 14.7265 26.9702C14.7265 27.5764 14.9954 27.6329 17.8822 27.6329C19.7756 27.6329 20.6819 27.58 20.8275 27.4611ZM20.8945 20.6889C21.0439 20.4211 21.0439 20.2408 20.8945 19.973L20.6948 19.6151H17.9861C15.0695 19.6151 14.7265 19.696 14.7265 20.3841C14.7265 20.9915 14.9933 21.0468 17.921 21.0468H20.6948L20.8945 20.6889Z" fill="#2E2E2E"/>
<path d="M15.8324 20.9932C15.1231 20.9455 14.8644 20.8494 14.7804 20.6025C14.6869 20.3276 14.7558 20.0515 14.9552 19.9019C15.2519 19.6793 16.0321 19.6242 18.9096 19.6226L20.6804 19.6216L20.8334 19.9125C21.0197 20.2666 21.0162 20.4223 20.814 20.7867L20.6791 21.0298L18.4574 21.0251C17.2354 21.0225 16.0542 21.0082 15.8324 20.9932Z" fill="#FBD383"/>
<path d="M15.6403 27.5669C15.0242 27.5079 14.8075 27.3985 14.7565 27.1206C14.6924 26.7718 14.8292 26.4985 15.1202 26.3933C15.4889 26.2601 15.8103 26.2434 18.001 26.2434C20.154 26.2434 20.3897 26.2554 20.7155 26.3817C20.9424 26.4696 20.9981 26.5679 20.9974 26.879C20.9969 27.0832 20.9753 27.1869 20.9084 27.3059C20.8033 27.4929 20.7157 27.5201 20.0632 27.5681C19.5659 27.6047 16.0252 27.6038 15.6403 27.5669Z" fill="#FBD383"/>
<path d="M16.6873 34.354C15.6407 34.2885 15.1562 34.2188 15.0097 34.1126C14.7881 33.9519 14.7118 33.5412 14.8554 33.2829C15.048 32.9366 15.403 32.8598 17.1016 32.7965C18.5885 32.7411 20.3418 32.8382 20.6685 32.994C20.9307 33.119 21.0654 33.4652 20.9615 33.747C20.8227 34.1237 20.6447 34.2036 19.7459 34.2926C19.2578 34.3409 17.1535 34.3832 16.6873 34.354Z" fill="#FBD383"/>
<path d="M16.2561 40.9141C15.1954 40.8739 14.8962 40.7948 14.7848 40.5253C14.7202 40.3691 14.7472 40.0524 14.8371 39.9104C15.0388 39.5918 15.7262 39.5215 18.3836 39.5477C20.1763 39.5654 20.4384 39.5831 20.7355 39.7069C20.9468 39.795 21.0394 39.9952 21.0055 40.2911C20.973 40.5755 20.8564 40.7612 20.6807 40.8083C20.6068 40.8281 20.3709 40.8588 20.1563 40.8765C19.6197 40.9209 17.0821 40.9454 16.2561 40.9141Z" fill="#FBD383"/>
<path d="M15.855 47.6169C14.9896 47.5448 14.7645 47.4003 14.7601 46.9137C14.7562 46.4928 14.9471 46.3352 15.5941 46.225C16.418 46.0847 19.5361 46.0768 20.2265 46.2133C20.6507 46.2971 20.8849 46.475 20.9791 46.785C21.0443 46.9995 20.953 47.2574 20.7571 47.4125C20.5006 47.6155 20.3779 47.6261 18.1653 47.6362C17.0815 47.6411 16.0419 47.6324 15.855 47.6169Z" fill="#FBD383"/>
<path d="M15.8401 54.2249C15.1804 54.1914 15.05 54.1452 14.8882 53.8876C14.7326 53.6399 14.7435 53.3548 14.9154 53.1707C15.1823 52.8849 15.3772 52.865 17.9189 52.865C20.0809 52.8649 20.3626 52.8805 20.7185 53.0197C20.8548 53.073 20.9049 53.1178 20.9601 53.2359C21.096 53.5263 20.9509 54.0477 20.7137 54.1213C20.4857 54.1921 19.738 54.2255 18.1037 54.238C17.144 54.2453 16.1254 54.2394 15.8401 54.2249Z" fill="#FBD383"/>
<path d="M15.7842 60.9393C15.4104 60.9196 15.0463 60.8576 14.9692 60.8007C14.7496 60.6385 14.7083 60.2966 14.8686 59.9687C14.9884 59.7236 15.1078 59.6644 15.5768 59.6176C16.0459 59.5707 20.0968 59.5981 20.3745 59.65C20.6537 59.7022 20.8495 59.7849 20.9294 59.8845C21.0351 60.0162 21.0232 60.4629 20.9086 60.6668C20.8036 60.8538 20.7159 60.881 20.0634 60.9291C19.6822 60.9571 16.2758 60.9653 15.7842 60.9393Z" fill="#FBD383"/>
<path d="M2.65732 54.4565C2.36505 54.3926 2.25262 54.0034 2.13477 52.6475C2.05219 51.6973 1.98462 39.8376 1.98462 26.2925V1.66504H25.0927H48.2008V7.15085V12.6367L33.1631 12.6986C21.4523 12.7468 18.0099 12.8144 17.6029 13.0043C16.6058 13.4694 16.3179 14.0993 16.2017 16.0695L16.0919 17.9329L15.1563 18.0354C13.9085 18.1721 12.9076 18.9887 12.7404 20.0065C12.5069 21.4282 13.7373 22.718 15.327 22.718C15.8828 22.718 15.9192 22.7763 15.9192 23.6663C15.9192 24.5607 15.8849 24.6146 15.3163 24.6146C13.4865 24.6146 12.079 26.551 12.929 27.8988C13.4313 28.6952 14.1574 29.1747 15.0348 29.2893C15.8961 29.4018 15.9192 29.4255 15.9192 30.2006C15.9192 30.983 15.9009 31.0009 14.8343 31.2669C13.4986 31.6 12.9345 32.1918 12.7518 33.4519C12.6229 34.3404 12.6688 34.465 13.362 35.1098C13.8975 35.6079 14.3698 35.8407 15.0154 35.925L15.9192 36.0431V36.9672C15.9192 37.8312 15.8807 37.8912 15.327 37.8912C13.9399 37.8912 12.6678 39.0133 12.6678 40.2369C12.6678 41.5015 14.0338 42.6329 15.5606 42.6329C16.1507 42.6329 16.1738 42.671 16.1061 43.5315C16.0379 44.3966 16.005 44.4341 15.2224 44.5395C14.0117 44.7026 13.4698 45.0084 13.0202 45.7822C12.4134 46.8265 12.6611 47.8808 13.6951 48.6547C14.1482 48.9938 14.7209 49.2712 14.9678 49.2712C15.9239 49.2712 16.1514 49.4756 16.1514 50.3347C16.1514 51.1054 16.1062 51.1679 15.5478 51.1679C13.9382 51.1679 12.6678 52.276 12.6678 53.6801V54.3332L9.35831 54.4568C5.82308 54.5889 3.26267 54.5888 2.65732 54.4565Z" fill="#FEFEFE"/>
<path d="M18.713 66.0635C18.5578 65.9109 18.3745 65.1135 18.3055 64.2915L18.18 62.797L19.7763 62.6752C21.6284 62.534 22.3903 62.1592 22.8558 61.1605C23.2795 60.2512 23.0225 59.2159 22.2079 58.5506C21.6708 58.112 21.2874 58.0022 19.9025 57.8908L18.2414 57.7571V56.9545V56.1518L19.5972 56.0514C20.3429 55.9962 21.2817 55.8122 21.6835 55.6425C23.0337 55.0723 23.4884 53.6636 22.7388 52.3735C22.2362 51.5085 21.3589 51.1678 19.6337 51.1678H18.216L18.2868 50.2669L18.3575 49.366L19.9212 49.2712C21.3016 49.1874 21.5737 49.1037 22.2436 48.5563C22.907 48.0141 23.0024 47.8115 23.0024 46.9441C23.0024 45.4591 21.9811 44.5295 20.3497 44.5295C19.9885 44.5295 19.3663 44.4762 18.9672 44.411C18.287 44.2999 18.2414 44.2403 18.2414 43.4626V42.6328H19.7332C20.9969 42.6328 21.3335 42.5582 21.9353 42.1447C22.8833 41.4932 23.2804 40.408 22.925 39.4394C22.5027 38.2881 21.9456 38.0025 19.9627 37.9207L18.2414 37.8497V36.9435V36.0373L19.8943 35.9611C21.4066 35.8913 21.6038 35.8331 22.2119 35.2773C23.3828 34.2071 23.3905 32.8718 22.2317 31.8588C21.6806 31.377 21.3601 31.2805 19.9167 31.1621L18.2414 31.0247V30.216V29.4072L19.878 29.3116C21.1688 29.2361 21.6359 29.1229 22.0882 28.7759C23.4531 27.7287 23.3458 25.7122 21.8866 24.9855C21.3606 24.7236 20.7217 24.6158 19.6929 24.6153L18.2414 24.6146V23.6662V22.7179H19.7197C21.3589 22.7179 22.1477 22.3732 22.7748 21.3829C23.2164 20.6855 23.208 20.2529 22.7342 19.2858C22.2663 18.3308 21.3888 17.9763 19.493 17.9763H18.175L18.3042 16.4375C18.3752 15.5911 18.5521 14.8016 18.6974 14.683C19.0866 14.3651 65.2507 14.3754 65.6401 14.6935C65.8504 14.8652 65.9449 21.0215 66.0335 40.316L66.1501 65.7124L65.6005 66.0267C65.0978 66.3143 63.0881 66.3411 42.023 66.3411C22.0931 66.3411 18.9571 66.3037 18.713 66.0635Z" fill="#FEFEFE"/>
<path d="M2.77564 54.5093C2.49221 54.4474 2.36647 54.0807 2.25309 52.9854C2.17098 52.192 2.10379 40.3323 2.10379 26.6305V1.71802H25.2119H48.32V7.20383V12.6896L33.2823 12.7516C21.5714 12.7998 18.129 12.8674 17.7221 13.0572C16.725 13.5223 16.4371 14.1523 16.3209 16.1225L16.211 17.9859L15.2938 18.0863C12.1281 18.4331 12.0142 22.2939 15.1576 22.7044C16.0373 22.8193 16.0383 22.8205 16.0383 23.7435C16.0383 24.6414 16.0188 24.6676 15.3497 24.6676C14.4023 24.6676 13.0776 25.643 12.8847 26.4827C12.5729 27.8401 13.5653 29.1014 15.1134 29.315C16.0254 29.4408 16.0383 29.454 16.0383 30.2643C16.0383 31.0376 15.9938 31.094 15.2835 31.2196C13.568 31.523 12.5404 32.8121 12.8867 34.2264C13.0892 35.0534 14.4151 35.8538 15.4594 35.9901C16.3391 36.105 16.2483 36.0694 16.2483 36.9924C16.2483 38.1378 16.336 37.9946 15.4355 37.9442C14.1392 37.9442 12.7869 39.0998 12.7869 40.2076C12.7869 40.7901 13.3424 41.7762 13.8981 42.1804C14.2005 42.3083 14.8145 42.4653 15.3416 42.5231L16.2167 42.5946L16.2552 43.6114C16.3741 44.5814 16.5182 44.5807 15.3416 44.5927C13.6045 44.8272 12.63 45.896 12.8625 47.3116C13.0044 48.1758 14.2737 49.3242 15.087 49.3242C16.0359 49.3242 16.2706 49.5301 16.2706 50.3627C16.2706 51.1673 16.2662 51.1714 15.3052 51.2766C13.9016 51.4304 12.9875 52.2381 12.8448 53.4507L12.7346 54.3881L9.45129 54.5108C5.93862 54.642 3.38067 54.6414 2.77564 54.5093Z" fill="#E8E8E8"/>
<path d="M2.37443 53.851C2.30153 53.5533 2.16725 41.6897 2.07602 27.4874L1.91016 1.66504H25.0554H48.2006V7.05297V12.4409L46.8652 12.508C46.1308 12.5448 40.4089 12.6017 34.15 12.6344C20.6526 12.7047 17.9457 12.7682 17.3506 13.0283C16.7383 13.2959 16.2112 14.4646 16.1882 15.6055C16.1777 16.1271 16.1036 16.8739 16.0236 17.2651C15.9006 17.8663 15.788 17.9763 15.2957 17.9763C13.3466 17.9763 12.0432 20.0437 13.0199 21.5862C13.3754 22.1476 14.4246 22.718 15.1019 22.718C15.3038 22.718 15.529 22.8455 15.6022 23.0014C15.6755 23.1573 15.829 23.2376 15.9433 23.1798C16.2197 23.0403 16.2055 23.2928 15.8962 24.0173C15.756 24.3458 15.4844 24.6146 15.2927 24.6146C15.1009 24.6146 14.6102 24.744 14.202 24.9022C11.8817 25.8014 12.2922 28.7975 14.7998 29.2647C15.1422 29.3285 15.5434 29.4997 15.6912 29.6452C16.0458 29.9941 15.7571 31.0633 15.3084 31.0633C14.655 31.0633 13.5731 31.6546 13.1227 32.2579C12.5792 32.9858 12.5213 34.3307 13.0159 34.7347C13.2075 34.8911 13.3643 35.0922 13.3643 35.1815C13.3643 35.4015 14.6222 35.9946 15.0889 35.9946C15.5923 35.9946 16.0139 36.798 15.8279 37.4031C15.7098 37.7873 15.5343 37.8912 15.0034 37.8912C14.236 37.8912 12.9822 38.79 12.7653 39.4956C12.5993 40.036 12.7518 40.8503 13.1515 41.5565C13.4922 42.1586 14.4448 42.6329 15.3131 42.6329C16.0377 42.6329 16.1128 42.7458 15.9771 43.6303C15.8881 44.2104 15.7535 44.3655 15.2547 44.463C13.4008 44.8253 12.5575 45.7137 12.7297 47.1227C12.8547 48.1456 13.9519 49.1767 15.1032 49.3531C15.723 49.448 15.8897 49.5786 16.008 50.0613C16.1727 50.734 15.849 51.1679 15.1823 51.1679C14.5035 51.1679 13.4129 51.6888 13.0936 52.1656C12.9371 52.3992 12.7512 52.931 12.6803 53.3473C12.5148 54.3195 12.3923 54.3409 6.83249 54.3698L2.50698 54.3922L2.37443 53.851Z" fill="#E8E8E8"/>
</svg>
