<svg width="68" height="68" viewBox="0 0 68 68" fill="none" xmlns="http://www.w3.org/2000/svg">
<path d="M43.5313 67.9351C43.0796 67.7461 42.7974 67.2144 42.7974 66.5526C42.7974 65.5896 43.4505 62.0776 44.2478 58.7533C44.6537 57.0604 44.9662 55.6548 44.9422 55.6295C44.9181 55.6043 44.7085 55.8906 44.4764 56.2658C43.3088 58.1528 41.1554 60.2929 38.6857 62.0205C32.2986 66.4886 24.1504 68.2023 16.7439 66.6351C10.7568 65.3682 5.63058 61.6795 2.74388 56.5609C-1.89597 48.3336 -0.58052 37.2866 6.15255 27.9353C10.8616 21.3952 18.4255 16.154 25.3393 14.6404C29.241 13.7863 32.4804 14.0922 34.2346 15.4805C35.8429 16.7534 36.1402 18.4909 35.2719 21.5439C34.6291 23.804 34.6087 25.0777 35.199 26.0787C35.4544 26.5118 35.8677 26.9445 36.2828 27.2134C36.8895 27.6064 37.0597 27.6472 38.0603 27.6388C39.0016 27.631 39.306 27.562 40.0997 27.1772C41.3423 26.5746 42.5207 25.6957 44.5493 23.8585C47.2686 21.3957 48.5943 20.7317 50.0386 21.1093C51.4536 21.4791 52.4153 22.4156 52.8771 23.8732C53.053 24.4284 53.0914 24.9131 53.0385 25.9095C52.9004 28.5063 51.92 30.2661 48.5482 33.9696C46.1713 36.5803 45.3487 37.6724 44.7501 39.0122C44.4136 39.7652 44.3729 40.019 44.3729 41.3644V42.8725L45.1694 44.7881C45.9134 46.5776 46.4965 48.5017 46.4965 49.1671C46.4965 49.3256 46.5292 49.4211 46.5691 49.3792C46.609 49.3374 47.0736 47.8239 47.6015 46.016C50.851 34.8874 53.9912 26.3211 58.4123 16.525C59.5603 13.9814 59.6364 13.7576 59.4546 13.4614C58.6485 12.1483 58.4077 9.51474 58.9561 8.00924C59.4754 6.58358 60.2571 5.53195 61.6874 4.33489C63.5036 2.81476 64.6287 1.61169 65.0509 0.738336C65.3551 0.108893 65.4656 0 65.7997 0C66.0153 0 66.2593 0.0854613 66.342 0.189912C66.6149 0.534625 67.5795 3.78254 67.7948 5.08164C68.2285 7.69828 67.9666 10.2395 67.085 11.9676C66.5643 12.9885 65.3712 14.2132 64.3224 14.8035L63.4472 15.2962L62.3148 20.0359C59.8802 30.2257 56.8885 39.5546 52.4572 50.7752C49.1451 59.1616 45.5273 66.9402 44.5677 67.7381C44.2633 67.9912 43.8521 68.0694 43.5313 67.9351ZM45.8687 62.6446C49.3348 55.387 54.2 42.9327 56.8468 34.5421C57.7609 31.6445 59.375 26.1669 59.375 25.9626C59.375 25.8631 56.3653 24.7919 56.3007 24.8684C56.2148 24.97 54.279 30.0786 53.3572 32.6363C50.7293 39.9275 47.5437 50.7776 45.4182 59.6767C44.9929 61.4576 44.167 65.5174 44.1679 65.823C44.1693 66.0981 44.6402 65.217 45.8687 62.6446ZM25.7833 65.5628C32.0678 64.6439 37.8312 61.7398 41.6422 57.5716C43.9973 54.9957 45.1265 52.5448 45.1265 50.0084C45.1265 48.6388 44.8582 47.5821 44.0107 45.6141C43.1392 43.5904 42.9337 42.7505 42.9373 41.2265C42.9431 38.7203 43.9261 36.9441 47.397 33.1668C50.6669 29.6083 51.5587 28.061 51.6724 25.7487C51.7219 24.7427 51.6853 24.4696 51.426 23.908C51.0039 22.9938 50.2495 22.4878 49.3091 22.4878C48.3745 22.4878 47.6113 22.9698 45.5333 24.8721C43.3204 26.8979 42.343 27.649 41.0848 28.2902C39.1521 29.2751 37.5179 29.3923 35.981 28.656C35.0165 28.194 34.385 27.5791 33.9423 26.671C33.2078 25.164 33.2277 23.8662 34.0313 20.8657C34.5036 19.1026 34.5349 18.4014 34.178 17.5776C33.8542 16.83 33.242 16.3419 32.111 15.9297C30.8647 15.4753 28.1512 15.4766 26.0828 15.9325C20.4323 17.1778 14.7133 20.5525 10.167 25.3242C8.41993 27.1578 7.40119 28.4627 6.02562 30.6289C1.14819 38.3094 0.0213445 47.2988 3.07868 54.1383C5.86752 60.3772 11.573 64.5178 18.8215 65.5635C20.6376 65.8255 23.9893 65.8252 25.7833 65.5628ZM23.8222 62.5727C22.2916 62.0377 21.3388 61.1789 20.689 59.7485C20.3244 58.946 20.2649 58.6537 20.2649 57.666C20.2649 56.6809 20.325 56.3837 20.6865 55.5834C21.1995 54.4472 22.0121 53.5709 23.0463 53.0385C23.7204 52.6915 23.9841 52.639 25.0553 52.639C26.1188 52.639 26.4013 52.6943 27.1103 53.0413C29.633 54.2758 30.7208 57.3998 29.5009 59.9065C29.0658 60.8006 28.0617 61.8506 27.2376 62.2733C26.3508 62.7281 24.6848 62.8741 23.8222 62.5727ZM26.7163 60.9251C27.3695 60.5758 28.086 59.765 28.3816 59.0409C28.6469 58.3906 28.6448 56.9595 28.3773 56.2911C27.6325 54.429 25.4587 53.4938 23.7536 54.302C20.8018 55.7011 20.962 59.9423 24.0119 61.1391C24.6842 61.4029 26.0206 61.2972 26.7163 60.9251ZM10.9945 58.0875C10.6456 57.9749 10.062 57.6724 9.69749 57.4153C7.70063 56.0067 7.02704 53.2535 8.11333 50.9403C8.62216 49.8567 9.37181 49.094 10.4478 48.5651C11.101 48.244 11.4048 48.1866 12.4508 48.1866C13.4968 48.1866 13.8007 48.244 14.4538 48.5651C15.4962 49.0775 16.2231 49.7998 16.7803 50.877C17.2216 51.7301 17.246 51.8526 17.246 53.2135C17.246 54.5068 17.2075 54.7284 16.8594 55.4398C16.4165 56.3448 15.9726 56.8783 15.1871 57.4498C14.0772 58.2573 12.3394 58.5216 10.9945 58.0875ZM14.217 56.3901C15.7978 55.4189 16.404 53.3031 15.5913 51.5934C14.9221 50.1857 13.73 49.473 12.2322 49.5854C8.4677 49.8678 7.70566 55.2472 11.2302 56.6588C12.0549 56.9891 13.4456 56.864 14.217 56.3901ZM35.5264 55.6828C34.1515 55.2754 33.1376 54.3859 32.419 52.9569C32.0776 52.2779 32.0425 52.0676 32.0425 50.7001C32.0425 49.3937 32.0854 49.1076 32.3635 48.5612C32.8479 47.6091 33.8353 46.5853 34.697 46.1417C35.3747 45.7928 35.625 45.745 36.772 45.745C37.9702 45.745 38.1511 45.7835 38.9926 46.2178C40.038 46.7573 40.7397 47.5177 41.2731 48.6893C41.5808 49.365 41.6321 49.6662 41.6277 50.7719C41.6214 52.3525 41.3477 53.0788 40.3352 54.2012C39.1065 55.5632 37.1533 56.165 35.5264 55.6828ZM38.3488 54.0352C39.8992 53.1979 40.6326 51.4228 40.1469 49.6828C39.7059 48.1029 38.4163 47.1094 36.8064 47.1094C35.7618 47.1094 35.2096 47.3318 34.4333 48.0649C33.6748 48.7813 33.3167 49.6336 33.3167 50.7224C33.3167 52.2935 34.2405 53.6525 35.7164 54.2527C36.3283 54.5015 37.6942 54.3886 38.3488 54.0352ZM8.80772 44.8348C7.14488 44.2586 6.02093 42.998 5.58999 41.226C4.95404 38.6109 6.36372 35.9893 8.85086 35.1618C11.0886 34.4173 13.6444 35.5547 14.6743 37.7534C15.0159 38.4826 15.0539 38.7146 15.0539 40.0717C15.0539 41.426 15.0169 41.6533 14.6908 42.3008C14.2381 43.1998 13.1259 44.3054 12.2751 44.7023C11.3706 45.1242 9.81429 45.1836 8.80772 44.8348ZM11.9947 43.1325C14.3982 41.7611 14.0109 37.9863 11.7978 36.7601C11.038 36.3391 10.2147 36.2676 9.35476 36.5314C7.85014 36.993 6.9048 38.3314 6.9048 39.9999C6.9048 42.8048 9.6298 44.4818 11.9947 43.1325ZM16.0718 33.5558C12.8829 32.6544 11.5092 28.7257 13.3592 25.7978C14.2888 24.3264 16.1253 23.4322 17.842 23.615C19.6143 23.8038 20.9656 24.7727 21.7316 26.4038C22.1356 27.2642 22.1782 27.4781 22.1782 28.6504C22.1782 29.746 22.1231 30.0691 21.8218 30.7426C20.7656 33.1032 18.4605 34.231 16.0718 33.5558ZM18.8557 31.9129C19.5547 31.5853 20.1164 31.0156 20.5096 30.2352C20.9159 29.4288 20.915 27.8742 20.5078 27.0736C19.6085 25.3055 17.7336 24.6203 15.9777 25.4181C13.8122 26.402 13.2667 29.2289 14.8826 31.0924C15.9037 32.27 17.4238 32.584 18.8557 31.9129ZM60.0476 23.447C60.5277 21.7438 61.1629 19.2325 61.6306 17.1887C62.0383 15.4072 62.0619 15.1948 61.8602 15.1208C61.7366 15.0755 61.4388 14.9558 61.1983 14.855L60.7611 14.6716L60.3304 15.6302C58.817 18.9984 56.8922 23.4402 56.9312 23.4746C57.0178 23.5511 59.4429 24.3938 59.6089 24.4051C59.6999 24.4114 59.8973 23.9802 60.0476 23.447ZM63.6029 13.4944C64.0279 13.2539 64.5541 12.9047 64.7721 12.7185L65.1687 12.3799L64.4003 11.9988C63.0769 11.3425 62.1151 9.84198 62.1151 8.43368C62.1151 7.41324 61.3263 6.55426 60.916 7.12781C59.8309 8.64446 59.6941 10.8597 60.5807 12.5573C60.9185 13.2042 61.0275 13.2933 61.841 13.5874C62.3308 13.7645 62.7538 13.9144 62.7809 13.9205C62.808 13.9267 63.1779 13.7349 63.6029 13.4944ZM66.3113 10.0808C66.7177 8.4501 66.5725 4.88216 65.8254 2.8301L65.6792 2.4286L65.0959 3.12728C64.7751 3.51156 64.009 4.23904 63.3935 4.74391L62.3046 5.63885L62.7076 6.11855C63.215 6.7225 63.3391 7.14911 63.4982 8.30269C63.6476 9.38555 63.8974 9.93571 64.4078 10.3061C64.8756 10.6456 65.8662 11.0193 65.9836 10.9652C66.0431 10.9377 66.1977 10.5365 66.3113 10.0808Z" fill="#2E2E2E"/>
<path d="M16.3278 32.092C14.8601 31.607 13.9079 30.0176 13.9403 28.6557C13.9743 27.2219 14.3755 26.7088 15.0965 25.9739C15.1381 25.9316 16.2696 24.7987 18.1296 25.1515C19.3018 25.3738 20.4735 26.3538 20.7631 27.9607C21.0847 29.7448 20.3153 31.282 18.5645 32.0563C17.5827 32.4905 17.2454 32.3952 16.3278 32.092Z" fill="#F97316"/>
<path d="M8.83992 43.2786C8.13911 42.9379 7.49932 42.3552 7.18078 41.4963C6.72292 40.2618 6.79696 39.6058 7.10333 38.6567C7.58299 37.1707 8.89825 36.394 10.2773 36.3722C12.9942 36.3292 14.8152 39.9662 13.0639 42.2036C12.0378 43.5144 10.3663 44.0206 8.83992 43.2786Z" fill="#F97316"/>
<path d="M11.0364 56.5856C9.64333 55.9695 8.94556 54.6746 8.94556 53.2067C8.94556 51.3386 10.2706 49.6943 12.2047 49.5681C14.1796 49.4392 15.7136 50.7891 15.9262 52.7321C16.2777 55.9444 13.2828 57.5793 11.0364 56.5856Z" fill="#FBD383"/>
<path d="M23.1616 60.7259C22.0091 59.9444 21.6978 58.5871 21.6348 57.8038C21.5376 56.5945 21.9704 55.8862 22.4972 55.253C24.044 53.3938 26.7938 53.7082 28.0675 55.6732C28.4166 56.2118 28.5753 56.6874 28.5753 57.5506C28.5753 58.7747 28.4104 59.396 27.4804 60.35C26.2129 61.6504 24.1015 61.3633 23.1616 60.7259Z" fill="#FBD383"/>
<path d="M64.9899 10.6527C64.3558 10.3017 63.7391 10.1815 63.4673 8.14175C63.3796 7.48372 63.2053 6.7454 62.9185 6.3932L62.3042 5.63896L63.3049 4.81118C63.7844 4.41448 64.4905 3.75049 64.8765 3.35607C65.2626 2.96164 65.6761 2.41787 65.6796 2.42637C65.7225 2.53 66.1491 3.56222 66.3207 4.88407C66.4374 5.78364 66.5655 6.76324 66.5799 7.54228C66.6176 9.57788 66.0723 10.9821 65.9617 10.9833C65.8662 10.9843 65.3548 10.8546 64.9899 10.6527Z" fill="#F97316"/>
</svg>
