<svg width="25" height="25" viewBox="0 0 25 25" fill="none" xmlns="http://www.w3.org/2000/svg">
<path d="M15.9906 15.9973C16.0931 16.0997 16.1794 16.1859 16.3898 16.3962C16.8161 16.8221 17.7687 17.774 18.2509 18.2558L24.5 24.4999M8.67793 0.548479C9.51052 0.429347 10.4532 0.549103 11.2706 0.693739C11.7636 0.780964 12.2677 0.932736 12.7332 1.13837C15.0277 2.15205 16.8029 3.83597 17.7941 6.16626C18.0309 6.72288 18.1129 7.25354 18.243 7.82691C18.457 8.77036 18.4708 10.0639 18.2586 11.0154C18.1207 11.6341 18 12.2181 17.7471 12.8089C17.3814 13.6632 16.8846 14.3748 16.3575 15.1338C16.1413 15.4452 15.7112 15.8235 15.5 15.9999C15.5 15.9999 15.5 15.9999 15.1929 16.3152C14.4793 16.7957 13.7515 17.3811 12.9326 17.7111C12.1404 18.0303 11.3243 18.2384 10.4729 18.3602C9.6902 18.4723 8.71634 18.4471 7.94666 18.2924C7.43779 18.1901 6.9179 18.0437 6.41764 17.8791C4.72379 17.3221 3.19278 16.1197 2.15696 14.6688C1.59218 13.8777 1.18605 12.9473 0.882929 12.0118C0.719778 11.5082 0.671892 11.0161 0.595419 10.484C0.551548 10.1787 0.508818 9.96668 0.501957 9.68684C0.490876 9.23477 0.52792 8.87163 0.586183 8.42475C0.66395 7.82827 0.740639 7.25952 0.953564 6.69767C1.41377 5.4833 1.97778 4.33714 2.89685 3.37636C3.83692 2.39364 4.9921 1.62968 6.2182 1.10936C7.01027 0.773232 7.82515 0.670499 8.67793 0.548479Z" stroke="#2E2E2E" stroke-linecap="round"/>
</svg>
