<svg width="25" height="25" viewBox="0 0 25 25" fill="none" xmlns="http://www.w3.org/2000/svg">
<path d="M11.5084 1.79659C11.8226 1.0575 11.9797 0.687954 12.1985 0.574154C12.3885 0.475282 12.6116 0.475282 12.8016 0.574154C13.0203 0.687954 13.1775 1.0575 13.4916 1.79659L15.9941 7.68356C16.087 7.90205 16.1334 8.0113 16.2054 8.09496C16.2689 8.16898 16.3466 8.22819 16.4334 8.26872C16.5315 8.31454 16.6449 8.3271 16.8718 8.3522L22.9845 9.02872C23.7519 9.11364 24.1355 9.15611 24.3064 9.3391C24.4547 9.49803 24.5237 9.7206 24.4927 9.94065C24.4572 10.194 24.1706 10.4648 23.5973 11.0065L19.0312 15.3214C18.8618 15.4815 18.777 15.5616 18.7234 15.6591C18.6759 15.7455 18.6462 15.8412 18.6363 15.9403C18.625 16.0523 18.6486 16.1692 18.696 16.4033L19.9714 22.7083C20.1315 23.5 20.2116 23.8957 20.0984 24.1226C20 24.3198 19.8195 24.4572 19.6104 24.4944C19.3696 24.5371 19.0354 24.335 18.3669 23.9307L13.0424 20.7104C12.8448 20.5909 12.746 20.5313 12.641 20.5078C12.5481 20.4871 12.452 20.4871 12.359 20.5078C12.254 20.5313 12.1552 20.5909 11.9576 20.7104L6.63314 23.9307C5.96468 24.335 5.63045 24.5371 5.38969 24.4944C5.18055 24.4572 5 24.3198 4.9017 24.1226C4.78853 23.8957 4.86858 23.5 5.02871 22.7083L6.30403 16.4033C6.35136 16.1692 6.37503 16.0523 6.36379 15.9403C6.35385 15.8412 6.32417 15.7455 6.27667 15.6591C6.223 15.5616 6.13826 15.4815 5.9688 15.3214L1.40277 11.0065C0.82953 10.4648 0.542902 10.194 0.507266 9.94065C0.476324 9.7206 0.545277 9.49803 0.69366 9.3391C0.864488 9.15611 1.2482 9.11364 2.01562 9.02872L8.12827 8.3522C8.35515 8.3271 8.46857 8.31454 8.56666 8.26872C8.65345 8.22819 8.73115 8.16898 8.79474 8.09496C8.8666 8.0113 8.91304 7.90205 9.00593 7.68356L11.5084 1.79659Z" fill="#FBD383" stroke="#FBD383" stroke-linecap="round" stroke-linejoin="round"/>
</svg>
