<?xml version="1.0" encoding="UTF-8" standalone="no"?>
<!-- Created with Inkscape (http://www.inkscape.org/) -->

<svg
   version="1.1"
   id="svg1"
   width="920"
   height="920"
   viewBox="0 0 920 920"
   sodipodi:docname="vk-icon.svg"
   inkscape:version="1.4.2 (f4327f4, 2025-05-13)"
   xmlns:inkscape="http://www.inkscape.org/namespaces/inkscape"
   xmlns:sodipodi="http://sodipodi.sourceforge.net/DTD/sodipodi-0.dtd"
   xmlns="http://www.w3.org/2000/svg"
   xmlns:svg="http://www.w3.org/2000/svg">
  <defs
     id="defs1" />
  <sodipodi:namedview
     id="namedview1"
     pagecolor="#ffffff"
     bordercolor="#000000"
     borderopacity="0.25"
     inkscape:showpageshadow="2"
     inkscape:pageopacity="0.0"
     inkscape:pagecheckerboard="0"
     inkscape:deskcolor="#d1d1d1"
     inkscape:zoom="0.59412342"
     inkscape:cx="637.9146"
     inkscape:cy="534.40075"
     inkscape:window-width="1920"
     inkscape:window-height="991"
     inkscape:window-x="-9"
     inkscape:window-y="-9"
     inkscape:window-maximized="1"
     inkscape:current-layer="g1" />
  <g
     inkscape:groupmode="layer"
     inkscape:label="Image"
     id="g1">
    <path
       style="fill:#000000"
       d="m 740.83557,797.30862 c -0.55,-0.1764 -4.375,-1.09539 -8.5,-2.04222 -17.9892,-4.1291 -37.3805,-15.51563 -55.1885,-32.40667 -5.8787,-5.57596 -17.7966,-18.11085 -26.4842,-27.8553 -38.2343,-42.88536 -53.5024,-55.79597 -68.3503,-57.79641 -6.8819,-0.9272 -14.5508,2.37797 -20.7663,8.94994 -12.2205,12.92143 -18.7899,35.13535 -21.0391,71.14247 -0.9178,14.69375 -1.6966,17.39197 -6.7544,23.40284 -3.2832,3.9019 -6.9736,5.86196 -13.2934,7.06048 -2.6812,0.50848 -24.6184,0.99014 -48.7494,1.07035 -46.1734,0.15347 -53.6165,-0.33106 -77.1205,-5.0203 -52.9789,-10.56973 -102.696,-35.11838 -145.7539,-71.96833 C 184.88217,657.11261 110.56677,547.25292 37.403268,399.28723 16.423568,356.85807 6.3372685,334.72266 6.3298685,331.09414 c 0,-1.5438 0.5254,-7.39776 1.1745,-13.00881 l 1.1801,-10.2019 5.0747995,-2.18312 c 2.9762,-1.28032 8.5902,-2.49441 13.5756,-2.93585 4.6754,-0.414 38.6507,-0.69074 75.500702,-0.61498 l 67,0.13775 6.7134,2.84167 c 8.1676,3.45726 14.474,8.82326 17.9847,15.30292 1.4468,2.67048 5.4114,11.38041 8.8102,19.35541 28.9016,67.8157 79.5083,152.06866 107.4037,178.81182 16.3746,15.69836 30.1766,18.55224 39.0482,8.07415 13.1381,-15.51709 18.6611,-58.53794 15.5193,-120.88597 -2.4206,-48.03567 -6.1886,-63.21279 -18.8302,-75.84772 -7.3833,-7.37932 -16.0061,-11.84609 -42.9767,-22.26275 -2.1779,-0.84114 -1.6058,-1.52508 8.9032,-10.64422 14.358,-12.45895 15.1058,-12.94201 29.4242,-19.00822 30.253,-12.81711 41.9582,-14.58795 92.5,-13.99405 40.8823,0.4804 42.1667,0.65676 61.5,8.44442 5.5,2.21546 13.1956,4.98473 17.1013,6.15395 7.9196,2.37079 15.6315,7.52478 19.5176,13.04393 9.0446,12.84536 11.0166,31.74321 9.0382,86.61466 -2.02,56.02279 -2.5234,105.07202 -1.1855,115.5 2.4105,18.78803 8.7456,31.81434 17.9423,36.89318 3.9565,2.18496 4.7607,2.29461 9.2419,1.26021 2.6996,-0.62314 7.4814,-2.77806 10.6263,-4.78871 28.3566,-18.12968 84.3053,-105.01073 116.1492,-180.36468 4.0675,-9.625 8.8526,-20.73008 10.6337,-24.67797 4.0908,-9.0675 10.298,-15.5058 16.468,-17.08104 4.4052,-1.1247 67.8937,-2.17684 142.467,-2.36099 36.0481,-0.089 42.5916,0.63947 51.2332,5.70382 5.3252,3.12075 7.2668,7.43426 7.2668,16.14396 0,27.40808 -27.5142,73.09464 -100.3163,166.57241 -33.371,42.84824 -38.9787,50.79635 -45.4428,64.4078 -2.7414,5.77271 -3.6547,9.11774 -3.9965,14.63736 -0.5064,8.17942 0.7445,12.70083 5.8954,21.30983 3.8193,6.38345 23.3603,26.61818 41.8602,43.34617 18.6614,16.87407 53.1437,51.87584 64.5267,65.49886 12.5492,15.01868 22.6975,29.25836 29.4906,41.37982 6.2964,11.23525 7.9858,16.43244 7.9733,24.5289 -0.022,14.38248 -12.884,24.99972 -34.4906,28.47133 -8.8071,1.41508 -143.2891,3.83129 -147,2.64113 z m 12.5,-29.43295 v -2.79353 l 40.75,-0.65531 c 77.9854,-1.25412 93.25,-1.7836 93.25,-3.23457 0,-2.10381 -10.2394,-17.94169 -18.3643,-28.40503 -14.3974,-18.54127 -40.4753,-45.90309 -67.1357,-70.44103 -46.3872,-42.69424 -61.068,-62.99174 -62.2449,-86.05897 -1.2126,-23.76757 10.7653,-46.58674 52.6873,-100.37514 43.4436,-55.74049 63.8396,-84.13028 79.8043,-111.08143 4.6392,-7.8317 12.6852,-23.41893 14.3528,-27.80507 l 0.9583,-2.52047 -6.2789,0.634 c -3.4534,0.3487 -31.2539,0.72703 -61.7789,0.84074 -30.525,0.1137 -62.3819,0.45438 -70.7932,0.75705 l -15.2933,0.55032 -5.7982,14.5 c -14.1169,35.30298 -34.7161,76.17385 -53.9288,107 -35.386,56.77565 -62.4903,88.54297 -85.4229,100.11936 -32.9807,16.64858 -66.6447,-2.6595 -77.2025,-44.27974 -4.4717,-17.62797 -4.8727,-28.09557 -3.4035,-88.83962 0.7383,-30.525 1.3424,-67.425 1.3424,-82 0,-32.99517 0.4938,-31.66082 -13.5,-36.48219 -5.225,-1.80021 -11.5682,-4.21857 -14.096,-5.37414 -10.6426,-4.8652 -15.5615,-5.29767 -55.8356,-4.9091 -37.0677,0.35762 -37.7003,0.39819 -47.4645,3.04341 -5.4429,1.47453 -10.1166,2.90142 -10.3861,3.17088 -0.2694,0.26945 2.0436,3.22637 5.14,6.57093 10.6218,11.4728 17.8596,28.26522 21.7578,50.48021 2.0629,11.75614 4.8824,58.626 4.8725,81 0,7.15 -0.4529,19.3 -0.9995,27 -3.5931,50.61541 -16.6765,81.12892 -39.4371,91.9765 -14.9707,7.13497 -30.2748,6.9973 -46.0515,-0.41428 -10.2846,-4.83149 -18.1857,-10.86916 -28.7462,-21.96642 -34.5677,-36.32471 -85.211,-122.40801 -116.1209,-197.38179 -2.8487,-6.90946 -1.3111,-6.76884 -66.3232,-6.06593 -31.795302,0.34377 -57.942802,0.73417 -58.105402,0.86755 -0.8888,0.72886 36.451,76.71138 51.2612,104.31088 45.486402,84.76632 89.056102,152.06122 129.778002,200.44676 14.6271,17.37973 40.609,43.36667 53.7565,53.76682 46.0013,36.38869 98.2851,57.63335 152.5,61.96587 6.6,0.52743 21.45,0.79784 33,0.6009 11.55,-0.19694 26.2875,-0.41405 32.75,-0.48246 l 11.75,-0.1244 v -7.46973 c 0,-9.38153 2.4621,-26.20423 5.6133,-38.35333 7.8736,-30.35605 21.4533,-49.83988 41.4991,-59.54205 17.3656,-8.40497 33.1473,-8.37789 51.2678,0.088 14.7214,6.87779 32.1589,21.90031 54.2972,46.77712 30.3302,34.08226 39.0358,43.00155 50.3226,51.55833 11.5265,8.73847 23.5225,14.02946 35.8309,15.80363 4.4502,0.64147 4.6667,0.82161 4.6171,3.84221 -0.029,1.74305 0.3088,2.94612 0.75,2.67349 0.4411,-0.27264 0.802,-1.75279 0.802,-3.28923 z"
       id="path1" />
  </g>
</svg>
