<svg width="80" height="80" viewBox="0 0 80 80" fill="none" xmlns="http://www.w3.org/2000/svg">
<path d="M5.6512 79.7606C3.4648 79.2852 1.75549 78.1713 0.772252 76.581C-0.352136 74.7625 -0.395322 75.5742 1.63048 60.4502C5.42451 32.1252 6.04142 27.7747 6.34455 27.2068C6.80314 26.3477 7.8459 25.6352 9.96323 24.7341C13.7314 23.1304 13.7543 23.0602 11.1143 21.2006C9.48654 20.054 9.29175 19.8609 9.29175 19.3936C9.29175 19.0134 9.4298 18.7826 9.79725 18.5487C10.2752 18.2446 10.542 18.227 14.6895 18.227H19.0762L19.0829 16.6359C19.1108 9.9993 24.0284 4.04276 31.6774 1.38056C39.486 -1.33722 48.6331 0.0332595 54.6711 4.82566C58.705 8.02737 60.8967 12.2653 60.8993 16.8687L60.9001 18.227H65.4086C69.6613 18.227 69.9389 18.2446 70.3008 18.5375C70.5366 18.7282 70.6846 19.0549 70.6846 19.3846C70.6846 19.8694 70.5102 20.0428 68.8814 21.179C67.8896 21.8707 67.0358 22.5677 66.984 22.7279C66.8209 23.2325 67.3579 23.6065 69.6348 24.5741C73.4756 26.2064 73.7952 26.5436 74.1389 29.3261C74.255 30.2653 74.5586 32.5356 74.8137 34.3712C75.0688 36.2068 75.6229 40.3282 76.045 43.5299C76.4672 46.7315 77.2485 52.5993 77.7812 56.5694C78.3139 60.5395 79.0544 66.058 79.4268 68.8327C79.8561 72.0318 80.0602 74.1767 79.9845 74.6947C79.9187 75.1457 79.5699 75.9893 79.2059 76.578C78.1528 78.2813 76.2991 79.4376 73.9846 79.8349C73.2529 79.9605 63.6803 80.0066 39.8348 79.9992C11.3005 79.9904 6.55592 79.9573 5.6512 79.7606ZM74.9307 77.1337C76.1252 76.4544 76.9659 75.4922 77.1308 74.6156C77.2302 74.0873 76.6551 69.2942 75.1054 57.7336C73.915 48.8543 72.6978 39.7733 72.4005 37.5534C72.1031 35.3336 71.717 32.3648 71.5424 30.9561C71.3679 29.5473 71.1484 28.2374 71.0546 28.045L70.8841 27.6952L39.9501 27.7345L9.0161 27.7738L8.87149 28.3947C8.73099 28.998 7.22224 39.8478 6.03289 48.8078C5.70989 51.241 5.19108 55.118 4.87996 57.4232C3.32173 68.9688 2.76693 73.3229 2.7678 73.9992C2.76972 75.4243 3.78537 76.6332 5.55062 77.3113L6.50988 77.6798L40.3074 77.6416L74.1049 77.6034L74.9307 77.1337ZM33.2733 63.3996C32.9361 63.1268 32.8896 62.8822 32.8896 61.3816V59.674H31.6853C30.1168 59.674 29.6281 59.4138 29.6281 58.5786C29.6281 57.6401 30.1093 57.3456 31.6426 57.3456H32.8896V56.4367V55.5278L31.5301 55.4356C30.7824 55.3848 30.0486 55.2614 29.8994 55.1612C29.744 55.0568 29.6281 54.6991 29.6281 54.3236C29.6281 53.3848 30.0187 53.1543 31.6097 53.1543H32.8896V48.2645C32.8896 43.5816 32.9059 43.3615 33.2733 43.0642C33.638 42.7691 33.9128 42.7537 38.8108 42.7537C41.6455 42.7537 44.4234 42.8241 44.9841 42.9101C46.5732 43.154 47.9578 43.7487 49.1137 44.684C50.9786 46.193 51.7599 48.2819 51.2295 50.3404C50.8661 51.7505 50.3278 52.5702 49.1281 53.5402C48.0471 54.4142 46.5876 55.0421 45.0148 55.3097C44.4492 55.406 42.1724 55.4828 39.8828 55.4828H35.7674V56.4142V57.3456H41.2352C46.4472 57.3456 46.7209 57.3601 47.0867 57.656C47.6379 58.102 47.6607 58.9259 47.1351 59.4024C46.8627 59.6492 46.3298 59.674 41.3014 59.674H35.7674V61.3816C35.7674 63.3498 35.5448 63.7101 34.3285 63.7101C33.9128 63.7101 33.5108 63.5918 33.2733 63.3996ZM45.8682 52.6551C47.0929 52.1325 47.9702 51.2939 48.3392 50.2931C48.6974 49.3217 48.694 48.9064 48.3193 47.8855C48.1033 47.297 47.7593 46.8535 47.1135 46.3309C45.6988 45.1863 45.1098 45.0822 40.0499 45.0822H35.7674V49.1284V53.1746L40.3239 53.1256C44.8565 53.0769 44.8856 53.0745 45.8682 52.6551ZM21.1918 38.6033C20.0087 38.2655 18.4681 36.9923 18.0549 36.011C17.1362 33.8295 18.2907 31.4687 20.8029 30.3914C21.8177 29.9563 24.652 29.9841 25.6951 30.4395C28.2816 31.5686 29.4105 34.0829 28.2831 36.2035C27.7501 37.2059 26.3279 38.2829 25.0843 38.6258C23.9663 38.934 22.3164 38.9245 21.1918 38.6033ZM24.8079 36.2477C25.5119 35.8421 26.078 34.7169 25.9133 34.0505C25.7455 33.3719 25.1427 32.7447 24.3749 32.4499C23.4952 32.1121 22.8215 32.1326 21.9629 32.523C20.0353 33.3996 20.0656 35.6702 22.0147 36.4062C22.9819 36.7714 23.9991 36.7137 24.8079 36.2477ZM54.6315 38.5479C52.5807 37.9099 51.2522 36.3064 51.2266 34.4381C51.2068 32.998 51.9291 31.7775 53.2957 30.9418C54.4353 30.2449 55.3064 30.0237 56.8934 30.0281C58.8747 30.0336 60.5464 30.8485 61.6269 32.3356C62.0885 32.9711 62.1471 33.209 62.1471 34.4488C62.1471 35.6925 62.0893 35.9254 61.6209 36.5702C60.1875 38.5431 57.2697 39.3687 54.6315 38.5479ZM57.9467 36.4034C58.5327 36.1881 58.8397 35.9379 59.1458 35.4264C59.6563 34.5731 59.6583 34.3279 59.1619 33.4981C58.8683 33.0074 58.5444 32.7505 57.9025 32.499C54.6525 31.226 52.3351 35.0406 55.5252 36.4122C56.3639 36.7728 56.947 36.7707 57.9467 36.4034ZM19.0331 23.0004L19.086 20.5555H16.8451C14.7266 20.5555 14.6202 20.5703 14.8985 20.8272C16.2942 22.1151 16.1061 24.2301 14.5093 25.2038L13.9921 25.5191L16.4862 25.4822L18.9803 25.4453L19.0331 23.0004ZM24.8318 20.8569C24.8318 18.2033 24.9239 15.7094 25.0453 15.0745C26.5063 7.43427 36.4853 2.73816 45.369 5.51014C49.2373 6.71716 52.5679 9.3669 54.0109 12.3854C54.9942 14.4424 55.1304 15.4536 55.1378 20.7561L55.1445 25.536L56.6314 25.4907L58.1182 25.4453L58.1728 21.5645C58.2584 15.4796 57.8435 12.9404 56.3775 10.577C54.4189 7.4192 51.5647 5.15752 47.6058 3.62631C45.5101 2.81575 43.4117 2.40109 40.8515 2.29162C32.2669 1.92456 24.6465 6.43734 22.3852 13.2273C21.8984 14.6889 21.881 14.8968 21.8076 20.1286L21.7318 25.5229H23.2818H24.8318V20.8569ZM52.2667 23.0392V20.5555H39.9881H27.7096V23.0392V25.5229H39.9881H52.2667V23.0392ZM65.1702 25.0184C64.4133 24.3835 64.1616 23.8464 64.1616 22.8662C64.1616 22.1066 64.4947 21.3653 65.0778 20.8272C65.3561 20.5704 65.2499 20.5555 63.1361 20.5555H60.9001V23.0392V25.5229H63.3359H65.7717L65.1702 25.0184ZM52.2253 16.4807C52.1502 15.0171 52.0432 14.5444 51.5647 13.5614C50.1485 10.6522 47.6183 8.62515 44.0634 7.55163C42.3284 7.02769 38.9509 6.8907 37.1054 7.26941C33.3036 8.04961 30.3985 9.99911 28.7574 12.8715C27.9726 14.245 27.7096 15.2602 27.7096 16.9152V18.227H40.0123H52.315L52.2253 16.4807Z" fill="#2E2E2E"/>
<path d="M27.7891 23.0448V20.6799H39.9882H52.1873V23.0448V25.4096H39.9882H27.7891V23.0448Z" fill="#FBD383"/>
<path d="M15.085 24.8927C15.8798 24.2082 16.0951 22.2858 15.4841 21.3298L15.0687 20.6799H16.9814H18.894V23.0448V25.4096H16.6894H14.4849L15.085 24.8927Z" fill="#FBD383"/>
<path d="M61.0825 23.0448V20.6799H62.9952H64.9078L64.52 21.2866C64.3068 21.6203 64.1323 22.3998 64.1323 23.0188C64.1323 23.9295 64.2578 24.2649 64.7903 24.7769L65.4482 25.4096H63.2654H61.0825V23.0448Z" fill="#FBD383"/>
</svg>
