<?xml version="1.0" encoding="UTF-8" standalone="no"?>
<!-- Created with Inkscape (http://www.inkscape.org/) -->

<svg
   version="1.1"
   id="svg1"
   width="1024"
   height="1024"
   viewBox="0 0 1024 1024"
   sodipodi:docname="logo.svg"
   inkscape:version="1.4.2 (f4327f4, 2025-05-13)"
   xmlns:inkscape="http://www.inkscape.org/namespaces/inkscape"
   xmlns:sodipodi="http://sodipodi.sourceforge.net/DTD/sodipodi-0.dtd"
   xmlns="http://www.w3.org/2000/svg"
   xmlns:svg="http://www.w3.org/2000/svg">
  <defs
     id="defs1" />
  <sodipodi:namedview
     id="namedview1"
     pagecolor="#ffffff"
     bordercolor="#000000"
     borderopacity="0.25"
     inkscape:showpageshadow="2"
     inkscape:pageopacity="0.0"
     inkscape:pagecheckerboard="0"
     inkscape:deskcolor="#d1d1d1"
     inkscape:zoom="0.75488281"
     inkscape:cx="593.4696"
     inkscape:cy="627.24968"
     inkscape:window-width="1920"
     inkscape:window-height="991"
     inkscape:window-x="-9"
     inkscape:window-y="-9"
     inkscape:window-maximized="1"
     inkscape:current-layer="g9" />
  <g
     inkscape:groupmode="layer"
     inkscape:label="Image"
     id="g1">
    <g
       id="g9">
      <path
         style="fill:#c26433;stroke:none"
         d="m 467.50583,162.15142 c -38.05548,4.99676 -73.75494,12.36133 -108,30.88427 -26.00989,14.06861 -48.73502,32.35041 -69.03857,53.69135 -17.73023,18.63617 -33.18995,39.96564 -44.71451,63 -10.06739,20.12189 -18.55187,40.99683 -23.59569,63 -25.46994,111.11011 22.99208,214.13 86.6389,303 34.59064,48.29889 74.26343,93.61823 117.70987,134.08948 18.73755,17.45447 37.7868,39.29657 66,35.62115 18.70917,-2.43725 31.48279,-16.54474 45,-28.28625 33.36322,-28.98041 63.16455,-63.42029 91.25,-97.42438 61.51599,-74.47974 120.87402,-165.90015 127.66052,-265 9.48493,-138.50391 -93.68347,-270.86163 -231.91052,-290.13037 -18.44537,-2.57129 -38.3949,-4.88812 -57,-2.44525 m -2,14.86114 c 18.94824,-2.23572 39.25146,-0.31897 58,2.44287 131.31458,19.34375 226.89728,145.04236 217.91052,276.27161 -6.27484,91.62878 -62.62262,177.35889 -118.31018,247 -27.04553,33.82227 -56.61072,65.75494 -87.60034,95.98535 -11.69598,11.40943 -27.83154,29.74707 -45,31.8302 -23.24609,2.82062 -41.15079,-19.06976 -55.99924,-33.8117 -39.21985,-38.93854 -76.99038,-79.08222 -109.42514,-124.00385 -43.21676,-59.85449 -86.85168,-130.73108 -94.40661,-206 -10.30178,-102.63556 40.66894,-205.96899 130.83099,-257.57251 32.34933,-18.51489 67.28473,-27.80988 104,-32.14197 m -9,123.23224 c -10.35455,2.21246 -18.60703,10.25849 -21.2392,20.48224 -5.37024,20.85883 -0.7608,48.44879 -0.7608,70 v 206 64 c 0,10.12488 -1.7583,22.15393 0.7608,32 7.05884,27.58984 22.76737,56.30823 34.9838,82 2.78998,5.86749 7.37213,25.2663 16.21298,23.50769 7.88519,-1.56848 12.99164,-20.974 15.9035,-27.50769 12.28443,-27.56396 33.75965,-60.39941 35.09955,-91 1.11261,-25.40863 -0.91968,-51.52246 -0.96063,-77 -0.0999,-62.17352 0.10291,-124.76129 0.17902,-187 0.0284,-23.23279 -0.17902,-46.61969 -0.17902,-70 0,-10.10254 2.24359,-22.98358 -3.09412,-31.99921 -11.09704,-18.74334 -35.43103,-14.00079 -53.90588,-14.00079 -7.41159,0 -15.72632,-1.03638 -23,0.51776 m 66,67.48224 h -53 c -4.70541,0 -15.56134,2.00983 -19.39661,-1.02777 -2.81967,-2.23322 -1.60339,-8.82153 -1.60339,-11.97223 0,-10.20892 -3.68332,-28.99652 4.21375,-36.77545 4.83804,-4.76563 11.53002,-4.22455 17.78625,-4.22455 11.9884,0 24.0155,-0.28357 36,0.0147 5.34631,0.13306 10.74829,1.15576 13.77161,6.0293 6.8518,11.04487 2.22839,35.20856 2.22839,47.956 m 0,14 v 302 c -5.24396,0 -10.29999,0.45819 -15,-2.2832 -7.19476,-4.19648 -12.92096,-12.53296 -22,-12.53003 -8.99142,0.003 -14.91391,8.44153 -22,12.66894 -4.58835,2.73731 -9.86359,2.14429 -15,2.14429 v -302 h 74 m -4,316 -14.79938,35 -6.69989,13.93286 -11.50073,0.0718 -11.48999,-0.0471 -6.49841,-12.95758 -14.0116,-36 c 7.31897,-0.005 12.91278,-1.49805 19,-5.78473 3.90115,-2.74725 7.86633,-7.79846 13,-7.96222 5.46979,-0.17444 9.8233,5.57361 14,8.38739 6.17554,4.16034 11.68011,5.35474 19,5.35956 z"
         id="path9"
         sodipodi:nodetypes="cssssssssssscccssssssssccsscsssssssssssccssssssscccsssccccccccccsssc" />
    </g>
  </g>
</svg>
