<svg width="23" height="24" viewBox="0 0 23 24" fill="none" xmlns="http://www.w3.org/2000/svg">
<path d="M2.94548 14.4793C4.65101 16.9427 8.43618 20.9105 10.5829 22.4852C10.9664 22.7665 11.403 22.9967 11.553 22.9967C12.4305 22.9967 17.8753 17.5634 19.8445 14.7227C21.9326 11.7107 22.6429 9.61125 22.4837 6.92238C22.4206 5.85623 22.2613 5.20753 21.8286 4.25456C20.5259 1.38537 17.7347 -0.0531057 14.9276 0.697974C13.7594 1.01055 12.5527 1.74684 11.8793 2.55799C11.5425 2.96383 11.5425 2.96383 10.7544 2.21173C9.28716 0.81142 7.51058 0.260775 5.623 0.621272C1.91735 1.32899 -0.266518 5.38937 0.74591 9.68902C1.11041 11.237 1.91725 12.9942 2.94548 14.4793Z" stroke="#2E2E2E"/>
</svg>
