<svg width="206" height="28" viewBox="0 0 206 28" fill="none" xmlns="http://www.w3.org/2000/svg">
<path d="M-2.13236e-05 26.98V0.379979H10.944C13.3 0.379979 15.314 0.759979 16.986 1.51998C18.6833 2.27998 19.988 3.36931 20.9 4.78798C21.812 6.20665 22.268 7.89131 22.268 9.84198C22.268 11.7926 21.812 13.4773 20.9 14.896C19.988 16.3146 18.6833 17.404 16.986 18.164C15.314 18.924 13.3 19.304 10.944 19.304H2.73598L4.93998 16.986V26.98H-2.13236e-05ZM4.93998 17.518L2.73598 15.124H10.716C12.8946 15.124 14.5286 14.668 15.618 13.756C16.7326 12.8186 17.29 11.514 17.29 9.84198C17.29 8.14465 16.7326 6.83998 15.618 5.92798C14.5286 5.01598 12.8946 4.55998 10.716 4.55998H2.73598L4.93998 2.12798V17.518ZM31.7612 11.438H44.9852V15.504H31.7612V11.438ZM32.1412 22.838H47.1512V26.98H27.2012V0.379979H46.6192V4.52198H32.1412V22.838ZM52.6582 26.98V0.379979H56.7242L73.4062 20.862H71.3922V0.379979H76.2942V26.98H72.2282L55.5462 6.49798H57.5602V26.98H52.6582ZM83.4219 26.98V0.379979H94.3659C96.7219 0.379979 98.7359 0.759979 100.408 1.51998C102.105 2.27998 103.41 3.36931 104.322 4.78798C105.234 6.20665 105.69 7.89131 105.69 9.84198C105.69 11.7926 105.234 13.4773 104.322 14.896C103.41 16.3146 102.105 17.404 100.408 18.164C98.7359 18.924 96.7219 19.304 94.3659 19.304H86.1579L88.3619 16.986V26.98H83.4219ZM88.3619 17.518L86.1579 15.124H94.1379C96.3165 15.124 97.9505 14.668 99.0399 13.756C100.155 12.8186 100.712 11.514 100.712 9.84198C100.712 8.14465 100.155 6.83998 99.0399 5.92798C97.9505 5.01598 96.3165 4.55998 94.1379 4.55998H86.1579L88.3619 2.12798V17.518ZM142.982 26.98V0.379979H147.922V26.98H142.982ZM155.117 26.98V0.379979H159.183L175.865 20.862H173.851V0.379979H178.753V26.98H174.687L158.005 6.49798H160.019V26.98H155.117ZM191.277 26.98V4.55998H182.461V0.379979H205.033V4.55998H196.217V26.98H191.277Z" fill="#3E2C23"/>
<path d="M123.458 27.36C121.381 27.36 119.468 27.018 117.72 26.334C115.972 25.65 114.452 24.7 113.16 23.484C111.868 22.2426 110.867 20.7986 110.158 19.152C109.449 17.48 109.094 15.656 109.094 13.68C109.094 11.704 109.449 9.89265 110.158 8.24598C110.867 6.57398 111.868 5.12998 113.16 3.91398C114.452 2.67265 115.972 1.70998 117.72 1.02598C119.468 0.341979 121.368 -2.09808e-05 123.42 -2.09808e-05C125.497 -2.09808e-05 127.397 0.341979 129.12 1.02598C130.868 1.70998 132.388 2.67265 133.68 3.91398C134.972 5.12998 135.973 6.57398 136.682 8.24598C137.391 9.89265 137.746 11.704 137.746 13.68C137.746 15.656 137.391 17.48 136.682 19.152C135.973 20.824 134.972 22.268 133.68 23.484C132.388 24.7 130.868 25.65 129.12 26.334C127.397 27.018 125.51 27.36 123.458 27.36ZM123.42 23.028C124.763 23.028 126.004 22.8 127.144 22.344C128.284 21.888 129.272 21.242 130.108 20.406C130.944 19.5446 131.59 18.5566 132.046 17.442C132.527 16.302 132.768 15.048 132.768 13.68C132.768 12.312 132.527 11.0706 132.046 9.95598C131.59 8.81598 130.944 7.82798 130.108 6.99198C129.272 6.13065 128.284 5.47198 127.144 5.01598C126.004 4.55998 124.763 4.33198 123.42 4.33198C122.077 4.33198 120.836 4.55998 119.696 5.01598C118.581 5.47198 117.593 6.13065 116.732 6.99198C115.896 7.82798 115.237 8.81598 114.756 9.95598C114.3 11.0706 114.072 12.312 114.072 13.68C114.072 15.0226 114.3 16.264 114.756 17.404C115.237 18.544 115.896 19.5446 116.732 20.406C117.568 21.242 118.556 21.888 119.696 22.344C120.836 22.8 122.077 23.028 123.42 23.028Z" fill="#F2690D"/>
</svg>
