<svg width="21" height="21" viewBox="0 0 21 21" fill="none" xmlns="http://www.w3.org/2000/svg">
<path fill-rule="evenodd" clip-rule="evenodd" d="M10.7149 20.4429C8.75211 20.4429 7.83999 20.1551 6.25453 19.004C5.25166 20.299 2.07594 21.3111 1.93743 19.5796C1.93743 18.2798 1.6509 17.1815 1.32616 15.9824C0.939353 14.5051 0.5 12.86 0.5 10.4763C0.5 4.78308 5.15138 0.5 10.6623 0.5C16.1781 0.5 20.4999 4.99411 20.4999 10.529C20.5184 15.9783 16.1406 20.4139 10.7149 20.4429ZM10.7961 5.42097C8.11221 5.28189 6.02051 7.14765 5.55729 10.0734C5.17525 12.4955 5.85338 15.4452 6.43121 15.5987C6.70819 15.6658 7.40543 15.0999 7.83999 14.6634C8.55859 15.162 9.39538 15.4614 10.266 15.5315C13.0469 15.6659 15.4231 13.5396 15.6098 10.7497C15.7185 7.95383 13.5774 5.58578 10.7961 5.42578V5.42097Z" stroke="#2E2E2E"/>
</svg>
