<svg width="68" height="68" viewBox="0 0 68 68" fill="none" xmlns="http://www.w3.org/2000/svg">
<path d="M63.1531 43.6272L66.5414 43.673L63.1531 43.6272Z" fill="#FBD383"/>
<path d="M9.41304 47.2359C9.19582 46.9885 9.19941 46.5976 9.43136 45.2438C9.68465 43.7654 9.77761 43.5517 10.1916 43.496C10.5844 43.4432 10.6906 43.5621 10.8271 44.2074C10.9172 44.6335 10.9953 45.531 11.0006 46.2018C11.0103 47.4178 11.0084 47.4215 10.3468 47.4825C9.94871 47.5192 9.57519 47.4206 9.41304 47.2359Z" fill="#FBD383"/>
<path d="M28.2278 67.9753C6.66382 67.9012 5.8806 67.8886 5.17487 67.6036C2.47006 66.5113 0.61188 64.3816 0.14397 61.8374C0.0188622 61.1572 -0.0231798 58.3733 0.0118964 53.0916C0.0627347 45.4368 0.06787 45.3318 0.440083 44.3464C1.38204 41.8528 3.46912 39.9956 6.06777 39.3385C6.62058 39.1987 7.95399 39.1327 10.2481 39.1315L13.6168 39.1296V20.6649V2.20016L13.9881 1.52393C14.2735 1.00425 14.5631 0.749583 15.2389 0.423851L16.1184 0L41.0575 0.0402644L65.9967 0.0805312L66.6716 0.502647C67.0428 0.734811 67.494 1.19812 67.6744 1.53222C67.9999 2.13524 68.0023 2.34726 67.9996 30.5695L67.997 58.9994L67.6311 59.61C67.4259 59.9524 66.9814 60.3726 66.6191 60.5665C66.0007 60.8975 65.8122 60.9124 62.2169 60.9148L58.4608 60.9174L58.2624 61.911C57.9865 63.2929 57.2828 64.6142 56.299 65.5973C54.8692 67.0261 53.4203 67.7387 51.5244 67.9457C50.9886 68.0042 40.5051 68.0175 28.2278 67.9753ZM53.102 66.1065C54.8562 65.3294 56.2223 63.7625 56.7364 61.9377C56.9107 61.3187 56.9594 59.4805 56.9609 53.4549L56.9629 45.7623L56.3541 45.1984C55.6317 44.5292 53.8157 43.6762 52.6122 43.4407C52.0154 43.3239 45.7057 43.2724 32.0174 43.2724H12.2828L12.3744 43.6176C12.6417 44.6249 12.9473 46.9037 12.8613 47.2485C12.7086 47.8613 12.0082 48.6524 11.409 48.889C10.0014 49.4449 8.44596 48.9227 7.79107 47.6744L7.40387 46.9364L7.75735 45.162C7.95176 44.1861 8.0689 43.348 8.01767 43.2996C7.96644 43.2512 7.27244 43.2894 6.47545 43.3844C4.8226 43.5816 3.39327 44.1478 2.28795 45.0432L1.59269 45.6064L1.63857 53.914L1.68446 62.2216L2.11636 63.0923C2.8809 64.6337 4.36649 65.878 6.03303 66.3729C6.5891 66.538 10.9711 66.5706 29.4454 66.5469L52.1737 66.5177L53.102 66.1065ZM61.2085 58.9467L61.6736 58.4546L61.6317 32.6082L61.5897 6.76189L61.1395 6.33647L60.6894 5.91104L37.8837 5.87111L15.0779 5.83118V22.4804V39.1296L33.3011 39.1315C48.1881 39.133 51.6768 39.1717 52.3574 39.3429C55.2301 40.0659 57.7176 42.5561 58.2582 45.2503C58.3549 45.732 58.4239 48.8374 58.4239 52.704C58.4239 56.3493 58.4646 59.3703 58.5143 59.4173C58.5641 59.4643 59.0859 59.4883 59.674 59.4707C60.6528 59.4414 60.7827 59.3971 61.2085 58.9467ZM41.2515 14.8016C40.8546 14.5388 40.7835 14.129 41.0855 13.8436C41.3658 13.5787 55.5137 13.5787 55.794 13.8436C56.0922 14.1255 56.0258 14.704 55.6748 14.8816C55.4725 14.9839 52.9146 15.0404 48.4865 15.0404C42.5276 15.0404 41.5643 15.0086 41.2515 14.8016ZM66.0666 59.0879C66.5387 58.6418 66.5412 58.6299 66.5412 56.7864V54.9334H64.8491H63.1571L63.0969 56.9664C63.0639 58.0846 62.9773 59.1203 62.9046 59.2679C62.7842 59.5126 62.8975 59.5364 64.1823 59.5364C65.524 59.5364 65.615 59.5148 66.0666 59.0879ZM66.5412 27.9513V2.35014L66.1492 1.95036C65.9335 1.73047 65.5865 1.51138 65.378 1.46349C65.1695 1.41559 53.9798 1.39554 40.5121 1.41892L16.0253 1.46144L15.5516 1.96253C15.1314 2.40697 15.0779 2.57606 15.0779 3.45851V4.45342H37.8688H60.6597L61.5187 4.87752C62.1611 5.19473 62.4727 5.4715 62.7548 5.97569L63.1319 6.64977V29.9988C63.1319 42.8408 63.1806 53.3939 63.2402 53.4502C63.2997 53.5065 64.0668 53.5525 64.9448 53.5525H66.5412V27.9513ZM10.9832 47.4831C11.421 47.1933 11.4308 46.8105 11.0516 44.8067L10.7758 43.3491H10.2137H9.65156L9.34403 44.9996C9.17489 45.9073 9.07924 46.811 9.13147 47.0076C9.30123 47.6469 10.3348 47.9123 10.9832 47.4831ZM54.7869 42.2135C54.4468 41.8843 53.6466 41.3838 53.0087 41.1011L51.849 40.5873L29.5372 40.5462C4.95518 40.501 6.32311 40.4518 4.67848 41.4407C3.78654 41.977 2.94734 42.7776 3.47025 42.5934C3.64883 42.5305 4.33628 42.3468 4.99791 42.1852C6.15544 41.9026 7.07043 41.8915 29.2199 41.8915C52.9976 41.8915 53.1299 41.8947 54.6006 42.5136C54.9623 42.6659 55.2913 42.7953 55.3318 42.8012C55.3722 42.8072 55.127 42.5427 54.7869 42.2135Z" fill="#2E2E2E"/>
<path d="M63.1484 41.3223C63.1649 41.3295 63.1823 41.3334 63.1992 41.3366C63.2399 41.3443 63.2845 41.3391 63.326 41.3414C63.4594 41.3488 63.5932 41.3463 63.7268 41.351C63.7539 41.3519 63.7809 41.3548 63.808 41.3558C63.8839 41.3587 63.9603 41.3525 64.0363 41.3558C64.0566 41.3567 64.0768 41.3598 64.0971 41.3606C64.1782 41.3637 64.2596 41.3574 64.3407 41.3606C64.4246 41.3639 64.5102 41.3704 64.5943 41.3654C64.6045 41.3648 64.6145 41.3613 64.6248 41.3606C64.6568 41.3584 64.689 41.3606 64.7212 41.3606C64.7888 41.3606 64.8564 41.3606 64.9241 41.3606C65.0147 41.3606 65.1077 41.3549 65.198 41.3606C65.2099 41.3614 65.2216 41.3645 65.2336 41.3654C65.2874 41.3693 65.342 41.3672 65.3959 41.3702C65.4061 41.3708 65.4161 41.3744 65.4263 41.375C65.455 41.3766 65.484 41.3723 65.5126 41.375C65.5196 41.3756 65.5259 41.379 65.5329 41.3797C65.5546 41.382 65.5772 41.3772 65.5988 41.3797C65.6275 41.3831 65.6562 41.3863 65.6851 41.3893C65.7101 41.392 65.7361 41.387 65.7612 41.3893C65.7682 41.3899 65.7745 41.3934 65.7815 41.3941C65.8148 41.3976 65.8495 41.3921 65.8829 41.3941C65.9373 41.3973 65.9913 41.4076 66.0453 41.4133C66.0521 41.4141 66.0589 41.4122 66.0656 41.4133C66.0693 41.4139 66.072 41.4175 66.0756 41.4181C66.0907 41.4205 66.1062 41.4165 66.1213 41.4181C66.1466 41.4207 66.1719 41.4253 66.1974 41.4277C66.2134 41.4292 66.2375 41.4227 66.2532 41.4277C66.2784 41.4356 66.3029 41.4293 66.3293 41.4325C66.3346 41.4331 66.3392 41.4364 66.3446 41.4372C66.359 41.4395 66.3755 41.4372 66.3902 41.4372C66.404 41.4372 66.4223 41.4347 66.4359 41.4372C66.4396 41.438 66.4422 41.4416 66.4459 41.442C66.4701 41.4449 66.4979 41.4375 66.522 41.442C66.5355 41.4446 66.5436 41.4468 66.5575 41.4468" fill="#FBD383"/>
<path d="M63.1556 44.059C63.1556 43.7551 63.1534 43.0166 63.1515 42.418C63.1495 41.8193 63.1484 41.329 63.1487 41.3283C63.1487 41.3275 63.1629 41.3301 63.1794 41.3339C63.2002 41.3387 63.2675 41.3424 63.4021 41.3459C63.5081 41.3487 63.6451 41.3525 63.7065 41.3546C63.7679 41.3566 63.8683 41.3582 63.9297 41.3583C64.074 41.3585 64.1954 41.3625 65.4491 41.4085C66.0252 41.4297 66.5063 41.447 66.5182 41.447H66.5399V43.0293V44.6116H64.8479H63.156L63.1556 44.059Z" fill="#FBD383"/>
<path d="M63.7431 53.5063C63.6011 53.4959 63.432 53.4787 63.3674 53.468L63.2499 53.4486L63.2311 52.8061C63.2207 52.4527 63.2037 50.47 63.1932 48.4001L63.1741 44.6367H64.8577H66.5413V49.085V53.5333L65.2713 53.5292C64.5729 53.527 63.8852 53.5166 63.7431 53.5063Z" fill="#FBD383"/>
</svg>
