<svg width="100" height="80" viewBox="0 0 100 80" fill="none" xmlns="http://www.w3.org/2000/svg">
<path d="M12.6078 79.7463C5.87408 78.5687 1.61953 76.3174 0.378199 73.2751L0.0246772 72.4087L0.00400322 44.9195C-0.0132599 21.9661 0.0201541 17.2678 0.206507 16.4451C0.679244 14.3582 2.89233 12.2397 5.85965 11.0336C9.50229 9.55301 12.0473 9.1182 17.7953 8.99441L22.4381 8.89442L22.5378 6.75589C22.5926 5.5797 22.6948 4.38125 22.7649 4.09266C23.1115 2.66596 24.1615 1.28334 25.526 0.456878L26.2804 0H61.1812H96.082L96.9625 0.552928C98.6025 1.58273 99.5123 3.16153 99.8428 5.55127C100.073 7.21279 100.041 60.3986 99.8091 62.323C99.7264 63.0093 99.5265 63.9066 99.3648 64.3169C98.983 65.2861 98.0287 66.4651 97.1226 67.087L96.4022 67.5814L66.687 67.6361L36.9719 67.6907L36.8899 69.9582C36.7945 72.5985 36.4992 73.6742 35.5456 74.8564C33.9192 76.8726 30.3792 78.5386 25.5599 79.5559C23.2556 80.0423 14.9947 80.1637 12.6078 79.7463ZM17.1549 73.1433V69.4704L16.1543 69.4079L15.1537 69.3454V73.0129C15.1537 77.1373 15.0781 76.9109 16.4345 76.849L17.1549 76.8162V73.1433ZM21.6833 76.5884C21.7463 76.4828 21.7749 74.8101 21.7469 72.8713L21.6959 69.3461L20.7062 69.4082L19.7164 69.4704L19.6723 72.9253C19.648 74.8256 19.6671 76.5135 19.7148 76.6764C19.7799 76.8989 20.0212 76.9487 20.6851 76.8765C21.1712 76.8236 21.6203 76.694 21.6833 76.5884ZM27.4273 75.7737C27.7623 75.6666 27.7756 75.5469 27.8326 72.1469C27.865 70.2131 27.8532 68.5675 27.8064 68.4901C27.7273 68.3593 27.3344 68.4306 25.1197 68.9777L24.2792 69.1853V72.7034C24.2792 74.6384 24.3149 76.2683 24.3585 76.3256C24.4322 76.4222 26.6426 76.0247 27.4273 75.7737ZM12.5922 72.7376C12.5922 68.6711 12.7871 69.1003 10.7795 68.7466C8.70016 68.3802 8.90962 68.0341 8.91243 71.8315C8.91371 73.6496 8.96832 75.2472 9.03363 75.3818C9.1575 75.6371 11.1702 76.2231 12.0719 76.2664L12.5922 76.2915V72.7376ZM6.50855 71.0866V67.5608L5.90819 67.2938C4.55783 66.6931 3.52302 66.1241 3.12183 65.7616C2.8881 65.5505 2.65396 65.3777 2.60152 65.3777C2.54907 65.3777 2.50663 66.7235 2.50721 68.3685C2.50833 71.6238 2.58755 71.9817 3.51935 72.9426C3.98064 73.4183 5.95571 74.5967 6.30843 74.6068C6.46075 74.6111 6.50855 73.7704 6.50855 71.0866ZM32.3882 73.6324C33.1017 73.1824 33.736 72.6109 33.9718 72.2056C34.3482 71.5587 34.3652 71.3969 34.3652 68.4536C34.3652 66.7619 34.325 65.3777 34.2759 65.3777C34.2268 65.3777 33.8712 65.6085 33.4857 65.8907C33.1002 66.1729 32.2399 66.6573 31.5738 66.9673L30.3628 67.5309V71.0944V74.6579L30.7803 74.5205C31.01 74.445 31.7335 74.0453 32.3882 73.6324ZM17.235 62.4394V58.6615H16.1943H15.1537V62.4394V66.2172H16.1943H17.235V62.4394ZM21.6813 62.3768L21.7251 58.6412L20.7208 58.7038L19.7164 58.7665L19.6723 62.2214C19.648 64.1217 19.6651 65.8028 19.7104 65.9574C19.7691 66.1578 20.0568 66.2203 20.7151 66.1753L21.6376 66.1123L21.6813 62.3768ZM12.5922 62.057V58.3165L11.0312 58.0172C10.1727 57.8527 9.36378 57.7178 9.23356 57.7175C9.03607 57.7171 8.98903 58.2913 8.94988 61.1801C8.92406 63.0848 8.95855 64.7453 9.02653 64.8701C9.14128 65.0809 11.4161 65.7228 12.232 65.7746L12.5922 65.7975V62.057ZM26.2003 65.4535C26.9488 65.2641 27.6125 65.0502 27.6753 64.9783C27.7873 64.8499 27.8818 57.8576 27.7734 57.7156C27.7431 57.6758 26.9625 57.8094 26.0387 58.0124L24.3592 58.3816L24.3155 62.0895C24.2651 66.3663 24.0574 65.9957 26.2003 65.4535ZM96.1017 64.0544C96.747 63.6169 97.0617 63.0988 97.2739 62.1245C97.4056 61.5195 97.4436 56.8006 97.4097 45.2292L97.3628 29.1734L67.1492 29.1203L36.9356 29.0673L36.8911 35.6266C36.8667 39.2342 36.8724 42.304 36.9038 42.4483C36.9478 42.6504 38.0233 42.7106 41.5866 42.7106C45.9988 42.7106 46.227 42.73 46.5324 43.1304C46.9292 43.6505 46.9595 44.9364 46.5877 45.475C46.3425 45.8302 45.9727 45.8588 41.6247 45.8588H36.9267V49.3219V52.7849H42.4198C47.7266 52.7849 47.9248 52.7994 48.2633 53.2128C48.7343 53.788 48.7343 54.93 48.2633 55.5051C47.9248 55.9186 47.7266 55.9331 42.4198 55.9331H36.9267V60.0957C36.9267 62.3851 36.9567 64.2977 36.9934 64.3458C37.0301 64.3939 50.2407 64.4184 66.3502 64.4002C91.955 64.3714 95.6983 64.3279 96.1017 64.0544ZM74.9216 56.9872C73.6197 56.6224 72.5647 55.6279 71.9649 54.2001C71.6145 53.366 71.5874 53.0449 71.5368 49.132C71.4743 44.3067 71.585 43.6472 72.7029 42.1817C73.888 40.6281 73.9831 40.6118 81.8915 40.6118C89.8634 40.6118 89.5941 40.555 90.9429 42.5216C91.8427 43.8336 91.9996 44.7344 91.9996 48.5873C91.9996 52.8133 91.7299 54.1876 90.6245 55.595C89.5416 56.9737 89.3003 57.0162 82.0737 57.0996C78.5075 57.1407 75.2891 57.0902 74.9216 56.9872ZM89.0715 52.8063C89.4141 52.1398 89.438 51.8819 89.438 48.8606C89.438 45.4453 89.3028 44.6465 88.6464 44.186C88.4494 44.0478 85.9457 43.9699 81.6962 43.9699H75.054L74.5614 44.5133L74.0689 45.0566V48.7872V52.5178L74.4926 53.0733L74.9164 53.6288L81.8107 53.5741L88.7049 53.5195L89.0715 52.8063ZM51.7283 45.3437C51.5121 45.0603 51.3353 44.5838 51.3353 44.2847C51.3353 43.9856 51.5121 43.5091 51.7283 43.2258L52.1212 42.7106H57.579H63.0368L63.4477 43.2492C63.7779 43.6822 63.839 43.9162 63.7587 44.4423C63.5353 45.9063 63.741 45.8588 57.627 45.8588H52.1212L51.7283 45.3437ZM6.47222 60.4287L6.4285 56.7389L5.30783 56.2255C4.69146 55.9431 3.84628 55.4784 3.42966 55.1929C3.01303 54.9074 2.6348 54.6738 2.58915 54.6738C2.42687 54.6738 2.50916 60.2892 2.68091 60.9351C2.89175 61.728 3.98066 62.8169 5.30783 63.5619C5.83615 63.8585 6.3241 64.105 6.39217 64.1098C6.46024 64.1145 6.49626 62.458 6.47222 60.4287ZM32.3855 63.0029C32.8251 62.7109 33.4504 62.0866 33.775 61.6156L34.3652 60.7591V57.7165C34.3652 55.759 34.3061 54.6738 34.1994 54.6738C34.1083 54.6738 33.8503 54.8313 33.6262 55.0239C33.402 55.2164 32.5941 55.6819 31.8307 56.0582L30.4428 56.7424L30.3991 60.4228L30.3554 64.1032L30.9709 63.8185C31.3094 63.662 31.946 63.2949 32.3855 63.0029ZM17.135 52.9948C17.1241 51.7827 17.1061 50.1535 17.095 49.3743L17.0749 47.9576H16.1143H15.1537V51.6406V55.3235L16.1543 55.261L17.1549 55.1985L17.135 52.9948ZM21.6814 51.5781L21.7252 47.9576H20.7608H19.7965V51.641V55.3244L20.717 55.2615L21.6376 55.1985L21.6814 51.5781ZM12.5922 51.2108C12.5922 49.1907 12.5381 47.5375 12.4721 47.5371C12.4061 47.5367 11.7036 47.3966 10.9112 47.2259C10.1187 47.0552 9.38026 46.9139 9.2702 46.9119C9.11763 46.9091 9.07008 47.78 9.07008 50.5771C9.07008 54.2104 9.07358 54.2471 9.43029 54.3528C10.3227 54.6171 11.4411 54.8387 11.9918 54.8602L12.5922 54.8837V51.2108ZM26.2003 54.6643C27.9671 54.2971 27.8013 54.7245 27.8013 50.5385V46.8512L27.1209 46.98C26.7466 47.0508 26.2964 47.1459 26.1203 47.1914C25.9442 47.2369 25.4579 47.3392 25.0396 47.4188L24.2792 47.5636V51.2236V54.8837L24.7194 54.882C24.9616 54.8812 25.628 54.7832 26.2003 54.6643ZM6.4723 49.6034L6.4285 46.0023L5.36055 45.5302C4.77318 45.2705 3.93218 44.8208 3.49167 44.5307C2.51232 43.8859 2.50255 43.9062 2.5157 46.5581C2.53301 50.0472 2.68919 50.6126 3.93828 51.7072C4.36127 52.0779 6.18954 53.1891 6.39226 53.1988C6.46037 53.202 6.4964 51.5841 6.4723 49.6034ZM31.8837 52.4829C32.324 52.2236 33.0444 51.5824 33.4847 51.058L34.2851 50.1045L34.3379 47.2218C34.3669 45.6364 34.3254 44.2536 34.2456 44.149C34.1589 44.0353 33.7961 44.1818 33.3438 44.5132C32.9277 44.8181 32.1047 45.2886 31.515 45.5586L30.4428 46.0495L30.399 49.6428L30.3551 53.2361L30.7192 53.0952C30.9194 53.0177 31.4434 52.7421 31.8837 52.4829ZM17.235 40.9491C17.235 36.8364 17.3037 37.0439 15.9411 37.0439H15.1537V40.8217V44.5995H16.1943H17.235V40.9491ZM21.6813 40.7692L21.725 37.0439H20.9339C19.5704 37.0439 19.6364 36.8523 19.6364 40.8092C19.6364 42.74 19.6876 44.3868 19.7501 44.4688C19.8126 44.5508 20.2629 44.5901 20.7507 44.5562L21.6376 44.4946L21.6813 40.7692ZM12.5558 40.4646L12.5121 36.7494L10.9112 36.3713C10.0307 36.1633 9.21536 36.0401 9.09943 36.0975C8.933 36.1799 8.90146 36.9643 8.94959 39.8236L9.01056 43.4452L10.5212 43.7925C11.3521 43.9835 12.1596 44.1487 12.3157 44.1598C12.5789 44.1783 12.5964 43.9092 12.5558 40.4646ZM26.2804 43.8024L27.7212 43.4407L27.765 39.7072L27.8087 35.9736L27.2847 36.1013C26.9965 36.1716 26.2203 36.3478 25.5599 36.4929L24.3592 36.7568L24.3155 40.4683C24.265 44.7519 24.0372 44.3654 26.2804 43.8024ZM6.47222 38.7946L6.4285 35.0885L5.38788 34.6279C4.81554 34.3745 3.97143 33.9172 3.51208 33.6117C3.05273 33.3061 2.63848 33.0561 2.59153 33.0561C2.54457 33.0561 2.50616 34.3831 2.50616 36.0049C2.50616 39.4239 2.60842 39.8309 3.71908 40.8327C4.36786 41.4179 6.05978 42.468 6.39217 42.4919C6.46024 42.4968 6.49626 40.833 6.47222 38.7946ZM31.7479 41.8568C33.0764 41.0754 33.8061 40.3711 34.1252 39.562C34.4143 38.829 34.4802 33.0561 34.1994 33.0561C34.1083 33.0561 33.8503 33.2137 33.6262 33.4062C33.402 33.5987 32.5941 34.0642 31.8307 34.4405L30.4428 35.1247L30.3991 38.8127C30.3733 40.9871 30.4165 42.5007 30.5043 42.5007C30.5861 42.5007 31.1458 42.211 31.7479 41.8568ZM17.1986 30.0653L17.2423 26.34H16.2088H15.1753L15.1245 29.8555C15.0965 31.789 15.1392 33.4933 15.2193 33.6428C15.3166 33.8242 15.6626 33.894 16.26 33.8527L17.1549 33.7907L17.1986 30.0653ZM21.6632 33.6333C21.8333 33.2749 21.7904 26.558 21.6166 26.3471C21.5401 26.2542 21.0632 26.2263 20.5569 26.2851L19.6364 26.3919V30.0039C19.6364 31.9904 19.6844 33.6788 19.7431 33.7557C19.9366 34.0094 21.533 33.9076 21.6632 33.6333ZM12.5922 29.7344V25.9928L11.2714 25.7293C10.545 25.5844 9.75248 25.4146 9.51034 25.352L9.07008 25.2381V28.9372C9.07008 30.9718 9.08809 32.6411 9.1101 32.647C10.2345 32.9444 12.2448 33.4392 12.3921 33.4547C12.5453 33.4709 12.5922 32.599 12.5922 29.7344ZM26.1345 33.0481C26.8468 32.9159 27.5049 32.7457 27.597 32.6696C27.7632 32.5325 27.8692 29.7891 27.8244 26.7854L27.8013 25.2369L27.1209 25.3693C26.7466 25.4421 25.9542 25.611 25.3598 25.7446L24.2792 25.9874V29.7458C24.2792 33.2264 24.2999 33.4962 24.5593 33.3962C24.7134 33.3369 25.4223 33.1802 26.1345 33.0481ZM6.4723 27.9858L6.4285 24.3846L5.38788 23.924C4.81554 23.6706 3.97143 23.2133 3.51208 22.9078C3.05273 22.6022 2.63848 22.3522 2.59153 22.3522C2.54457 22.3522 2.50616 23.7214 2.50616 25.3949V28.4376L3.07391 29.2614C3.6338 30.0739 5.67448 31.5736 6.23216 31.5825C6.49481 31.5866 6.51282 31.3168 6.4723 27.9858ZM32.2298 30.7392C32.8192 30.371 33.4474 29.7689 33.7907 29.2431L34.3652 28.3632V25.3577C34.3652 23.4259 34.306 22.3522 34.1994 22.3522C34.1083 22.3522 33.8575 22.5036 33.6422 22.6886C33.4268 22.8735 32.6189 23.3364 31.8467 23.7172L30.4428 24.4094L30.399 28.0222L30.3551 31.635L30.7992 31.4953C31.0435 31.4184 31.6872 31.0782 32.2298 30.7392ZM97.3101 24.9233C97.3252 24.4904 97.3432 22.3186 97.3502 20.097L97.3628 16.0577L66.9675 16.0567C38.074 16.0558 36.579 16.0739 36.7095 16.423C36.7849 16.625 36.8674 18.7973 36.8928 21.2503L36.9388 25.7103H67.1108H97.2827L97.3101 24.9233ZM23.6115 22.7566C26.861 22.2838 30.3416 21.1682 32.2672 19.9823C33.1512 19.4378 34.2051 18.1408 34.2051 17.5973C34.2051 16.6727 32.9328 15.4658 30.901 14.4632C23.8866 11.002 10.0563 11.4276 4.5312 15.2748C2.54825 16.6555 2.22734 17.586 3.29707 18.8529C4.10538 19.8103 4.46697 20.0467 6.50855 20.9531C9.65658 22.3506 13.0215 22.9168 18.4084 22.9556C20.4186 22.9701 22.76 22.8805 23.6115 22.7566ZM97.3628 8.98772C97.3628 4.98019 97.3099 4.74805 96.1637 3.72537L95.6344 3.25314H61.2296C23.4381 3.25314 26.3797 3.14876 25.4989 4.52099C25.1084 5.12951 25.0796 5.31669 25.0796 7.25297C25.0796 9.23891 25.0957 9.33617 25.4398 9.43236C25.638 9.48774 26.6109 9.72861 27.602 9.96762C29.5756 10.4436 31.8284 11.342 33.0327 12.1334L33.8048 12.6408L65.5838 12.6168L97.3628 12.5928V8.98772Z" fill="#2E2E2E"/>
<path d="M4.66336 51.9882C2.97183 50.7974 2.64936 49.9493 2.64893 46.6903C2.64877 45.3395 2.72017 44.2768 2.80766 44.3287C2.89514 44.3806 3.69571 44.797 4.58669 45.254L6.20667 46.0848L6.3505 48.7444C6.48642 51.2578 6.37549 52.9092 6.07191 52.8918C5.99707 52.8875 5.36322 52.4809 4.66336 51.9882Z" fill="#FBD383"/>
<path d="M10.8451 54.5543C9.12641 54.1763 9.22266 54.416 9.22266 50.5143V46.9993L9.91192 47.1618C10.291 47.2512 11.0068 47.4062 11.5025 47.5063L12.4039 47.6883V51.2671C12.4039 53.9623 12.3384 54.8379 12.1388 54.8133C11.993 54.7953 11.4108 54.6788 10.8451 54.5543Z" fill="#FBD383"/>
<path d="M15.1611 51.6487V48.1733H16.1155H17.0699V51.6487V55.1241H16.1155H15.1611V51.6487Z" fill="#FBD383"/>
<path d="M19.8269 51.6487V48.1733H20.6752H21.5235V51.6487V55.1241H20.6752H19.8269V51.6487Z" fill="#FBD383"/>
<path d="M24.2803 51.2768V47.6887L25.3704 47.4991C25.97 47.3948 26.7364 47.2372 27.0736 47.1488L27.6866 46.988L27.6271 50.5498C27.5594 54.5983 27.7388 54.2672 25.3937 54.6725L24.2803 54.865V51.2768Z" fill="#FBD383"/>
<path d="M30.4341 50.0498C30.4357 48.4824 30.4888 46.9497 30.5522 46.6439C30.6319 46.2589 31.1693 45.8318 32.2989 45.2555C33.1963 44.7976 34.0021 44.3806 34.0896 44.3287C34.1771 44.2768 34.2487 45.5375 34.2487 47.1303V50.0262L33.4491 50.8686C32.6119 51.7506 31.0294 52.8996 30.6517 52.8996C30.5132 52.8996 30.4323 51.8395 30.4341 50.0498Z" fill="#FBD383"/>
<path d="M36.9658 21.1347C36.9236 18.6498 36.9231 16.5541 36.9648 16.4777C37.0066 16.4012 50.5846 16.3057 67.1384 16.2654L97.2361 16.1921V20.9224V25.6527H67.1394H37.0426L36.9658 21.1347Z" fill="#FBD383"/>
<path d="M82.1291 53.5324C82.5103 53.4705 83.0829 53.4718 83.4016 53.5353C83.7203 53.5987 83.4084 53.6494 82.7085 53.6478C82.0087 53.6464 81.7479 53.5943 82.1291 53.5324Z" fill="#FBD383"/>
<path d="M74.5806 52.8122C74.1575 52.2217 74.1195 51.8798 74.1195 48.6619C74.1195 43.8002 73.8894 44.0027 79.4168 44.0027C81.7157 44.0027 84.7614 44.0848 86.1851 44.1851C89.2857 44.4037 89.2014 44.2955 89.3464 48.2413C89.4247 50.3744 89.3681 51.224 89.082 52.2059L88.718 53.4557H81.8799H75.0418L74.5806 52.8122Z" fill="#FBD383"/>
</svg>
