<svg width="25" height="25" viewBox="0 0 25 25" fill="none" xmlns="http://www.w3.org/2000/svg">
<path d="M6.04204 5.3883C6.40511 3.29509 7.89211 1.40327 10.7793 0.716444C16.9994 -0.763225 20.3838 5.68594 18.1258 9.77865C17.3851 11.1212 16.0372 12.2102 13.9831 12.6825C8.61191 13.9176 5.36334 9.30111 6.04204 5.3883Z" stroke="#2E2E2E"/>
<path d="M0.564402 20.4243C0.920482 17.3476 3.71718 14.6604 6.93482 13.9856C8.75726 13.6035 10.2777 14.61 12.0608 14.6654C13.6362 14.7144 14.972 14.3963 16.2535 14.2424C17.8783 14.0473 19.4158 14.1162 21.2441 15.5323C23.2376 17.0764 26.5011 23.1553 22.3126 24.2766C20.836 24.6719 18.9282 24.3901 17.4004 24.3901H7.1484C5.5941 24.3901 3.18644 24.8056 1.81212 24.0217C0.434729 23.2359 0.40902 21.7669 0.564402 20.4243Z" stroke="#2E2E2E"/>
</svg>
