<svg width="61" height="61" viewBox="0 0 61 61" fill="none" xmlns="http://www.w3.org/2000/svg">
<path d="M6.01884 60.2548C5.91082 60.1506 5.82244 60.0194 5.82244 59.9635C5.82244 59.9075 6.32969 58.1603 6.94967 56.0807C7.56964 54.0012 8.48091 50.9151 8.9747 49.2228L9.87251 46.1459L12.1961 43.5517C14.4823 40.9992 19.6169 35.2243 26.2502 27.7448C29.7342 23.8165 37.6703 14.8838 44.6889 6.99085C46.9018 4.50218 49.1571 1.9955 49.7005 1.42045C50.8864 0.165644 51.3599 -0.0602956 52.652 0.012096C53.7076 0.0712401 53.6835 0.0558302 57.1242 2.86969C59.3768 4.71189 59.8329 5.14094 60.1107 5.6791C60.7559 6.92914 60.4664 8.20207 59.2361 9.52477C57.9393 10.9189 43.0836 27.5978 33.4429 38.4834C30.6804 41.6026 23.5958 49.5843 21.1527 52.3299C20.1931 53.4083 19.3536 54.2906 19.2871 54.2906C19.2207 54.2906 16.2791 55.6753 12.7503 57.3675C9.22151 59.0598 6.30752 60.4444 6.27477 60.4444C6.24203 60.4444 6.12686 60.3591 6.01884 60.2548ZM10.2019 57.0936C9.88516 56.5686 8.71844 55.6179 8.39086 55.6179C8.31186 55.6179 8.05833 56.2559 7.82746 57.0357C7.59658 57.8155 7.38079 58.5255 7.34792 58.6135C7.31506 58.7015 7.97209 58.4425 8.808 58.0379C10.1269 57.3996 10.3112 57.2748 10.2019 57.0936ZM14.4065 55.3986C16.0436 54.6143 17.5658 53.9019 17.7892 53.8154C18.2806 53.6251 18.2875 53.5699 17.8664 53.1955C17.4404 52.8168 16.9484 51.8048 16.9468 51.3042C16.9457 50.9239 16.9296 50.912 16.4145 50.9094C15.1294 50.903 13.8778 49.8581 13.6305 48.5852C13.5484 48.163 13.5161 48.1368 13.0772 48.1368C12.4593 48.1368 11.5562 47.8667 11.0801 47.5394C10.7931 47.3421 10.683 47.3155 10.6461 47.4345C10.1706 48.9643 8.56471 54.564 8.59421 54.5892C8.61636 54.6081 8.92085 54.7624 9.27085 54.9321C9.85676 55.2162 11.1966 56.4557 11.1966 56.7136C11.1966 56.7746 11.2491 56.8246 11.3132 56.8246C11.3774 56.8246 12.7694 56.1829 14.4065 55.3986ZM20.4495 51.4934C21.8615 49.8826 42.9771 26.0839 49.4096 18.8535C51.9004 16.0537 53.9948 13.7292 54.0639 13.688C54.2952 13.55 54.1945 13.4244 53.2576 12.682L52.3256 11.9435L51.2728 13.1172C50.6937 13.7628 49.0397 15.6213 47.5972 17.2472C46.1547 18.8731 42.8259 22.6197 40.2 25.5729C25.1062 42.5476 18.1207 50.4644 18.026 50.7032C17.8694 51.0979 18.1421 51.931 18.5886 52.422C18.799 52.6534 19.0377 52.8427 19.119 52.8427C19.2002 52.8427 19.799 52.2355 20.4495 51.4934ZM17.0768 49.8229C17.2086 49.7548 18.2903 48.601 19.4805 47.2589C24.47 41.6327 47.2991 15.9209 49.2826 13.6936C50.4676 12.363 51.4345 11.2472 51.4314 11.214C51.4283 11.1809 50.8619 10.6985 50.1729 10.1421C49.1254 9.29628 48.8941 9.15791 48.7612 9.2975C48.5099 9.56135 37.0533 22.4792 32.5166 27.6141C30.2543 30.1747 26.6571 34.2244 24.5228 36.6136C22.3885 39.0027 19.7988 41.9076 18.7678 43.069C17.7367 44.2304 16.3707 45.7665 15.7321 46.4827C15.0935 47.1988 14.571 47.8559 14.571 47.9428C14.571 48.3118 14.8815 48.9488 15.2408 49.3169C15.768 49.8571 16.5785 50.0804 17.0768 49.8229ZM14.8186 45.8744C15.3903 45.2274 19.1881 40.9514 23.2583 36.3722C41.7672 15.5484 48.0841 8.41745 48.0451 8.39128C48.022 8.37578 47.6202 8.05433 47.1523 7.67697C46.6844 7.2996 46.2592 6.99085 46.2073 6.99085C46.1555 6.99085 44.9273 8.33473 43.478 9.97726C42.0287 11.6198 39.3415 14.6469 37.5066 16.7042C35.6716 18.7615 32.5891 22.2366 30.6565 24.4266C28.7239 26.6166 25.907 29.7931 24.3967 31.4854C22.8865 33.1777 19.6501 36.8123 17.2048 39.5622C14.7595 42.3122 12.4106 44.9537 11.9849 45.4322C11.2718 46.2339 11.2276 46.3162 11.4225 46.4804C11.87 46.8576 12.409 47.0414 13.0815 47.0461L13.7791 47.0509L14.8186 45.8744ZM55.695 11.8098L56.0481 11.3799L53.7854 9.51721C52.5409 8.49272 50.7615 7.01693 49.8312 6.23767L48.1398 4.82084L47.6083 5.39303C47.316 5.70773 47.075 6.01952 47.0727 6.08588C47.0703 6.15225 47.6373 6.66808 48.3326 7.23218C49.0278 7.79628 50.7848 9.24219 52.2368 10.4453C55.1858 12.8887 54.901 12.7764 55.695 11.8098ZM57.9885 9.24355C58.5875 8.59115 59.1307 7.92246 59.1956 7.75758C59.3715 7.31096 59.3385 6.5425 59.1264 6.14651C58.9656 5.8464 54.6324 2.14859 53.4834 1.33098C53.0038 0.989736 52.0633 0.942787 51.4914 1.23154C51.0484 1.45519 48.9024 3.80394 48.9678 3.99348C49.0394 4.20082 56.6153 10.4791 56.763 10.4534C56.838 10.4404 57.3895 9.89596 57.9885 9.24355ZM47.5461 58.4735C46.8466 58.2213 45.9864 57.7028 45.7151 57.3698C45.2433 56.7907 35.4768 46.1189 33.0439 43.524C31.892 42.2953 31.7018 41.8749 32.1849 41.6253C32.3179 41.5566 32.4779 41.5004 32.5405 41.5004C32.6326 41.5004 35.9791 45.0147 36.5294 45.6893C36.7013 45.9 36.3678 46.1439 39.766 43.3222C40.9969 42.3001 42.0194 41.4275 42.0382 41.3831C42.057 41.3387 41.0297 40.0962 39.7554 38.6218C37.7557 36.3083 37.4561 35.909 37.5681 35.707C37.7631 35.3552 38.1199 35.2065 38.3493 35.3814C38.4547 35.4618 39.995 37.212 41.7722 39.2707C43.5494 41.3294 46.747 45.0071 48.8779 47.4433C51.0088 49.8795 52.9098 52.161 53.1023 52.5133C53.7613 53.7194 53.6592 55.1335 52.8254 56.3489C52.4304 56.9246 51.1753 57.9713 50.4401 58.3381C49.8685 58.6233 48.1807 58.7022 47.5461 58.4735ZM50.0073 57.3051C50.8193 56.9256 52.1362 55.6433 52.3004 55.0723C52.5311 54.2701 52.4703 53.6486 52.0961 52.9818C51.8313 52.5099 47.274 47.1756 44.9241 44.5869L44.5946 44.224L44.0492 44.6579C43.7492 44.8966 42.7352 45.7412 41.7959 46.5347C40.8566 47.3283 39.9109 48.1214 39.6944 48.2973C39.4459 48.4992 39.3357 48.6732 39.3957 48.7691C39.4479 48.8528 41.1653 50.7461 43.212 52.9766C46.3927 56.4429 47.0201 57.069 47.5307 57.2864C48.3134 57.6196 49.3181 57.6272 50.0073 57.3051ZM41.2284 45.5956C44.0631 43.2091 43.9306 43.4107 43.199 42.5985L42.8295 42.1883L41.5452 43.2621C40.8388 43.8527 39.6302 44.8616 38.8594 45.504L37.4579 46.6721L37.9606 47.2235C38.2371 47.5267 38.5031 47.7749 38.5516 47.7749C38.6002 47.7749 39.8047 46.7942 41.2284 45.5956ZM19.7488 29.0803L18.0278 27.2784L17.4479 27.3447C16.3363 27.4719 16.2268 27.368 12.4456 22.5968C10.5609 20.2186 8.26018 17.3226 7.33295 16.1612C3.13528 10.9035 0.773513 7.85255 0.503978 7.33941C-0.773757 4.90685 0.474046 1.6699 3.16365 0.439902C3.9569 0.0771322 4.09684 0.0527435 5.38501 0.0527435C6.67373 0.0527435 6.81289 0.0770248 7.60803 0.440648C8.59703 0.892925 8.33612 0.649161 15.3894 7.71076C18.2044 10.529 21.7331 14.0519 23.2311 15.5394C24.729 17.0269 26.0438 18.4105 26.1529 18.6142C26.3012 18.891 26.3337 19.1858 26.2818 19.783L26.2125 20.5817L27.323 21.8405C28.4074 23.0697 28.5989 23.4442 28.2938 23.7388C27.9412 24.0793 27.6258 23.8833 26.5769 22.6717C25.9998 22.0052 25.4805 21.4317 25.423 21.3974C25.3654 21.363 23.9575 22.465 22.2943 23.8461C20.6311 25.2272 19.1844 26.4198 19.0794 26.4963C18.9176 26.6142 19.0786 26.8349 20.1364 27.9443C21.9061 29.8005 22.3197 30.264 22.3197 30.3912C22.3197 30.5812 21.9389 30.8821 21.6984 30.8821C21.564 30.8821 20.7607 30.1396 19.7488 29.0803ZM18.0837 25.8833C18.3857 25.6559 20.0951 24.2577 21.8823 22.7763C25.0711 20.1331 25.1325 20.0735 25.1693 19.5883C25.2025 19.1507 25.1444 19.0272 24.6641 18.5151L24.1215 17.9364L20.5648 20.869C15.774 24.8192 15.6958 24.8849 15.6958 24.9645C15.6958 25.0028 15.9533 25.3182 16.2679 25.6655C16.9691 26.4394 17.2936 26.4783 18.0837 25.8833ZM18.2719 21.3469C19.8452 20.0512 21.6266 18.5911 22.2306 18.1024C22.8347 17.6136 23.3127 17.1722 23.293 17.1215C23.2732 17.0709 21.9073 15.7051 20.2576 14.0866C18.6078 12.468 15.4869 9.36758 13.3222 7.19671C11.1575 5.02583 9.34727 3.26338 9.29947 3.28015C9.08559 3.35518 7.58579 4.65133 7.57935 4.76671C7.57219 4.895 8.74986 6.29813 13.1933 11.4554C15.0723 13.6362 15.6156 14.194 15.955 14.291C16.3631 14.4075 17.2366 15.3052 17.8337 16.2216C18.1199 16.661 18.147 17.5988 17.8875 18.0834C17.4079 18.9787 16.3184 19.3681 15.3449 18.992C14.631 18.7162 13.1047 17.1158 12.9905 16.5232C12.9457 16.2909 12.7628 15.9326 12.584 15.727C12.1185 15.1916 5.35133 7.84351 4.94073 7.42754L4.5976 7.07992L3.71999 7.78953C3.2373 8.17981 2.838 8.54348 2.83266 8.59768C2.81991 8.72682 2.58974 8.43252 10.4466 18.3332C15.3097 24.4613 14.9352 24.0253 15.1882 23.8539C15.311 23.7707 16.6987 22.6425 18.2719 21.3469ZM16.7638 17.7957C17.1675 17.406 17.1508 17.1511 16.68 16.5111C16.0667 15.6775 15.5629 15.2134 15.1839 15.133C14.9219 15.0775 14.3272 14.4661 12.8018 12.684C8.06284 7.14771 6.65887 5.5429 6.55439 5.5429C6.49349 5.5429 6.23437 5.72808 5.97857 5.95441C5.54721 6.33606 5.52763 6.38202 5.70862 6.58789C6.05133 6.97769 10.4771 11.8091 12.3058 13.7897C13.4974 15.0802 14.0711 15.7924 14.0711 15.9809C14.0711 16.2895 14.812 17.2567 15.4379 17.7652C15.9371 18.1707 16.3652 18.1805 16.7638 17.7957ZM4.08591 6.11605C5.14966 5.23672 6.59563 4.05573 7.29916 3.49163L8.57831 2.466L8.01117 1.96237C6.90189 0.977335 5.05599 0.723888 3.66805 1.36605C1.72829 2.26352 0.640351 4.47078 1.25032 6.27126C1.45376 6.87173 1.93689 7.71028 2.08119 7.71333C2.12002 7.71418 3.02215 6.99538 4.08591 6.11605Z" fill="#2E2E2E"/>
<path d="M15.1309 17.304C14.7781 16.946 14.343 16.3522 14.164 15.9846C13.9851 15.6169 12.0054 13.3148 9.76488 10.8686L5.69116 6.42107L6.06579 6.03607C6.37373 5.71961 6.48515 5.68628 6.69166 5.84888C6.82984 5.95767 8.56417 7.92406 10.5457 10.2186C12.5273 12.5132 14.4217 14.5991 14.7555 14.8541C15.7063 15.5802 16.5471 16.4133 16.8027 16.8827C17.0118 17.2666 17.0046 17.3468 16.7356 17.6338C16.2834 18.1162 15.8417 18.0254 15.1309 17.304Z" fill="#FBD383"/>
<path d="M16.4842 25.6871C16.1146 25.3647 15.8334 25.0482 15.8593 24.9836C15.9074 24.8638 18.2077 22.9278 22.0138 19.8039L24.1432 18.0562L24.6147 18.6051C25.32 19.4263 25.2412 19.702 23.972 20.8529C22.4292 22.2519 18.0361 25.8219 17.5518 26.0703C17.1919 26.2548 17.0953 26.2201 16.4842 25.6871Z" fill="#FBD383"/>
<path d="M7.54565 58.3344C7.54565 58.2891 7.73539 57.6721 7.96729 56.9633C8.33067 55.8528 8.4279 55.6952 8.67093 55.8231C9.18621 56.0941 10.068 57.0862 9.95319 57.2656C9.75357 57.5775 7.54565 58.5576 7.54565 58.3344Z" fill="#FBD383"/>
<path d="M38.117 47.2318C37.8754 46.9884 37.6777 46.7496 37.6777 46.7012C37.6777 46.6243 41.401 43.4754 42.4408 42.673C42.8126 42.386 42.838 42.3857 43.1566 42.6642C43.3383 42.8229 43.4651 43.0967 43.4383 43.2726C43.3942 43.5622 41.5618 45.2504 39.3916 47.0008L38.5563 47.6745L38.117 47.2318Z" fill="#FBD383"/>
<path d="M53.611 11.4414C49.8334 8.3775 47.2803 6.20155 47.2803 6.04589C47.2803 5.94738 47.4871 5.67549 47.7398 5.44169L48.1994 5.0166L51.5064 7.75039C53.3252 9.25397 55.0598 10.6921 55.3611 10.9462L55.9089 11.4082L55.5267 11.8755C55.3164 12.1325 55.0544 12.3468 54.9443 12.3517C54.8342 12.3566 54.2343 11.9469 53.611 11.4414Z" fill="#FBD383"/>
</svg>
